<svg id="Group_32" data-name="Group 32" xmlns="http://www.w3.org/2000/svg" xmlns:xlink="http://www.w3.org/1999/xlink" width="210.074" height="210.074" viewBox="0 0 210.074 210.074">
  <defs>
    <clipPath id="clip-path">
      <rect id="Rectangle_214" data-name="Rectangle 214" width="210.074" height="210.074" fill="#fff"/>
    </clipPath>
  </defs>
  <g id="Group_31" data-name="Group 31" clip-path="url(#clip-path)">
    <path id="Path_73" data-name="Path 73" d="M108.678,11.284a97.394,97.394,0,0,1,68.867,166.261A97.394,97.394,0,0,1,39.811,39.81a96.757,96.757,0,0,1,68.867-28.526m0-2.843A100.237,100.237,0,1,0,208.915,108.677,100.236,100.236,0,0,0,108.678,8.441" transform="translate(-3.641 -3.641)" fill="#fff"/>
    <path id="Path_74" data-name="Path 74" d="M105.037,2.843A102.194,102.194,0,0,1,177.3,177.3,102.194,102.194,0,1,1,32.775,32.775,101.523,101.523,0,0,1,105.037,2.843m0-2.843A105.037,105.037,0,1,0,210.074,105.037,105.037,105.037,0,0,0,105.037,0" fill="#fff"/>
    <path id="Path_75" data-name="Path 75" d="M102.873,140.539q.975,0,1.778.035t1.778.175a11.96,11.96,0,0,1,2.022.419,5.357,5.357,0,0,1,3.485,2.649,5.907,5.907,0,0,1,.488,3.485,7.2,7.2,0,0,1-1.6,3.625q-.488.628-.941,1.29a5.054,5.054,0,0,1-1.22,1.22,12.014,12.014,0,0,0-1.429,1.219,11.9,11.9,0,0,1-1.43,1.22q-.558.489-1.08.871t-1.081.8l-2.3,1.464c-.187.14-.361.268-.523.383a2.805,2.805,0,0,1-.593.314,2.375,2.375,0,0,0-.941.454,6.369,6.369,0,0,1-.871.592,12.148,12.148,0,0,1-1.534.7l-2.719,1.115-.976.21a.75.75,0,0,1-.836-.767,1,1,0,0,1,.907-1.324,8.653,8.653,0,0,0,1.01-.314c.3-.115.616-.245.941-.383.185-.093.383-.185.593-.279s.429-.185.663-.279a24.657,24.657,0,0,0,4.74-2.545q2.3-1.569,4.392-3.241l.418-.418q.349-.349.662-.7a3.2,3.2,0,0,1,.8-.627,2.054,2.054,0,0,0,.418-.384,4.8,4.8,0,0,0,.349-.453l1.046-1.464a4.739,4.739,0,0,0,1.115-3.555,2.71,2.71,0,0,0-.732-1.743,4.561,4.561,0,0,0-1.6-1.08,8.15,8.15,0,0,0-2.022-.523q-1.082-.138-1.917-.209-.907,0-2.022.035t-2.3.1q-1.185.07-2.265.209a10.273,10.273,0,0,0-1.917.418l-2.3.488c-.233.047-.478.094-.732.14a5.87,5.87,0,0,0-.8.209,12.548,12.548,0,0,0-1.534.383q-.767.246-1.533.523a19.773,19.773,0,0,0-2.091.732q-.907.384-1.882.732l-3.207,1.464q-.7.35-1.359.662c-.443.209-.872.43-1.29.662l-1.952,1.184a2.724,2.724,0,0,1-.454.245,2.812,2.812,0,0,0-.452.244c-.326.233-.639.465-.942.7s-.617.466-.941.7a30.827,30.827,0,0,0-2.754,2.056,28.448,28.448,0,0,0-2.963,2.823,18.38,18.38,0,0,0-2.37,3.241,6.565,6.565,0,0,0-.976,3.242,19.176,19.176,0,0,0,.383,1.952,5.005,5.005,0,0,0,.872,1.812q.975,1.4,1.847,2.72t1.778,2.718a6.11,6.11,0,0,1,.976,2.161,10.35,10.35,0,0,1,.279,2.37,3.882,3.882,0,0,1-.349,1.742l-.627,1.324a5.237,5.237,0,0,1-.907,1.43q-.627.731-1.184,1.29a9.211,9.211,0,0,1-.872.767q-.454.348-.941.7A39.752,39.752,0,0,1,62.37,186.9a23.457,23.457,0,0,1-4.322,1.534,1.217,1.217,0,0,1-.488.07,12.715,12.715,0,0,1-2.789.349,6.1,6.1,0,0,1-.662-.035q-.314-.037-.662-.105A7.044,7.044,0,0,1,50,187.629a4.471,4.471,0,0,1-1.568-3.1,1.651,1.651,0,0,1,1.046-1.813,1.065,1.065,0,0,1,.418-.139,2.258,2.258,0,0,1,.557.139.781.781,0,0,1,.279.906,1.525,1.525,0,0,1-.07.488.876.876,0,0,0,0,.488,1.694,1.694,0,0,0,.523,1.116,3.512,3.512,0,0,0,1.046.662,4.548,4.548,0,0,0,1.254.313,11.843,11.843,0,0,0,1.221.07,17.405,17.405,0,0,0,7.284-1.673,16.092,16.092,0,0,0,5.961-4.532,5.2,5.2,0,0,0,.557-5.856,18.986,18.986,0,0,0-1.6-2.753q-.907-1.29-1.882-2.685a17.847,17.847,0,0,1-1.15-2.091,9.05,9.05,0,0,1-.732-2.37,7.792,7.792,0,0,1,.279-3.207,10.668,10.668,0,0,1,1.324-2.684,21.575,21.575,0,0,1,1.882-2.266q.905-.976,2.126-2.231a11.669,11.669,0,0,1,2.405-1.952,1.285,1.285,0,0,0,.488-.453,1.294,1.294,0,0,1,.488-.453,13.1,13.1,0,0,1,1.29-1.011q.66-.452,1.429-.941l.975-.628,5.368-3,.488-.209a6.364,6.364,0,0,0,.836-.349l.837-.418q.348-.139.732-.314a3.22,3.22,0,0,1,.8-.244,2.442,2.442,0,0,0,.627-.209l.558-.279,1.255-.488q1.324-.418,2.614-.8t2.684-.732a15.456,15.456,0,0,1,2.789-.627q1.184-.208,2.266-.383t2.266-.314h.872a5.848,5.848,0,0,0,.8-.069ZM49.265,184.806a.331.331,0,0,0,.349.279.62.62,0,0,0,.279-.07c0-.326-.093-.488-.279-.488a.142.142,0,0,0-.1.035.142.142,0,0,1-.1.035Zm1.115,1.812a.4.4,0,0,0-.278-.139.615.615,0,0,0-.279.07l.557.209Zm.14-.418q0,.557.349.628c.139-.279.187-.453.139-.523a.233.233,0,0,0-.209-.1Zm2.928,1.464a.877.877,0,0,0,1.115.14.8.8,0,0,0-.557-.279,2.248,2.248,0,0,0-.558.139M65.438,167.1q-.489-.139-.523-.035c-.024.069.035.151.174.244Zm2.649,4.88a1.435,1.435,0,0,0,.1-.279c.023-.093-.059-.139-.244-.139Zm1.534,2.579c.045-.324.023-.488-.07-.488H69.2Zm.279.976q.139-.556.07-.627c-.094-.139-.187-.209-.279-.209a.574.574,0,0,0-.349.209Zm40.92-31.788a.538.538,0,0,0-.383-.244c-.164-.023-.221-.127-.174-.313q0-.14-.349-.349a.451.451,0,0,0-.383.139.191.191,0,0,0,.034.279,3.026,3.026,0,0,0,.349.628c.092.233.209.348.349.348q.138,0,.557-.488m.558,1.325q.348-.558-.14-.7a.142.142,0,0,1-.1-.034.141.141,0,0,0-.1-.035q-.07,0-.279.209a2.56,2.56,0,0,1,.628.558m.139,1.324a.947.947,0,0,1-.175-.209c-.024-.045.035.024.175.209" transform="translate(-20.884 -60.622)" fill="#fff"/>
    <path id="Path_76" data-name="Path 76" d="M149.027,183.284a3.2,3.2,0,0,0-.941.383,4.348,4.348,0,0,0-.732.593,8.879,8.879,0,0,0-1.011.732q-.454.385-.941.8c-.373.233-.732.477-1.08.732s-.687.523-1.011.8a4.469,4.469,0,0,1-2.509,1.115,2.29,2.29,0,0,1-.941-.173,1.06,1.06,0,0,1-.523-.8,3.1,3.1,0,0,1-.035-1.22q.1-.591.244-1.15a31.352,31.352,0,0,1,2.161-6.484q.418-.836.767-1.638t.7-1.638l.419-.627a2.6,2.6,0,0,1,.349-.523,2.1,2.1,0,0,0,.348-.593,2.372,2.372,0,0,1,.454-.941c.209-.255.429-.523.662-.8l.767-1.254q.9-1.324,1.882-2.51a11.609,11.609,0,0,1,.732-1.045q.383-.488.8-.976l1.464-1.882a23.9,23.9,0,0,1,1.672-1.778q.906-.871,1.813-1.638a3.546,3.546,0,0,1,.453-.383,3.928,3.928,0,0,1,.522-.314q.838-.7,1.743-1.394a6.89,6.89,0,0,1,1.882-1.046c.372-.093.733-.185,1.081-.279a4.183,4.183,0,0,1,1.08-.14,3.633,3.633,0,0,1,1.324.245,2.361,2.361,0,0,1,1.046.8,4.726,4.726,0,0,1,.628,4.184,11.748,11.748,0,0,1-2.127,3.869,20.948,20.948,0,0,1-3.1,3.242q-.768.767-1.568,1.464t-1.639,1.464c-.139.094-.268.186-.383.279s-.245.187-.384.28q-2.509,1.952-5.088,3.764t-5.369,3.416c-.372.233-.7.43-.975.593a6.14,6.14,0,0,0-.837.592l-.348.488q-.209.836-.453,1.6t-.453,1.534l-.139,1.045.767-.557a15.223,15.223,0,0,1,1.952-1.464,19.632,19.632,0,0,0,1.708-1.325,11.1,11.1,0,0,1,1.778-1.255q.347-.209.732-.488a2.77,2.77,0,0,1,.871-.418,1.216,1.216,0,0,1,.489-.069,1.856,1.856,0,0,1,1.115.418q.556.35.349,1.324a7.07,7.07,0,0,0-.209.976c-.047.326-.094.674-.139,1.046a1.472,1.472,0,0,0,1.115,1.812,5.274,5.274,0,0,0,1.812.279h.558q.976-.138,1.882-.279a8.671,8.671,0,0,0,1.813-.488,16.561,16.561,0,0,0,2.857-1.115q1.394-.7,2.858-1.325l2.719-1.742q.348-.278.732-.592c.255-.21.5-.407.732-.593a3.118,3.118,0,0,1,.627-.349.976.976,0,0,1,.419-.07.764.764,0,0,1,.767.488,1.063,1.063,0,0,1-.349,1.394l-1.464,1.116a3.654,3.654,0,0,1-.557.348,4.863,4.863,0,0,0-.488.279,24.476,24.476,0,0,1-2.893,1.743q-1.5.768-3.1,1.534a3.708,3.708,0,0,1-1.22.488,8.336,8.336,0,0,0-1.22.349l-1.534.418a9.362,9.362,0,0,1-1.15.209q-.593.068-1.22.139-.908,0-1.673-.034a5.409,5.409,0,0,1-1.673-.384,3.493,3.493,0,0,1-2.3-4.113Zm-7.738,3.485a2.243,2.243,0,0,1-.069-.557l-.767-.488c-.279.465-.464.7-.558.7a.915.915,0,0,0,.314.384q.175.1.035.383c0,.139.117.256.349.349a3.11,3.11,0,0,0,.453.069h.175c.231,0,.348-.162.348-.488Zm1.046-6.832c.046.233-.035.314-.245.245a.332.332,0,0,0-.453.174c.045.094.093.2.139.313a.907.907,0,0,0,.209.314c.185.094.279.047.279-.139s.046-.279.139-.279a.926.926,0,0,0,.558.209.587.587,0,0,0,.487-.348,3.269,3.269,0,0,1,.488-.628,1.741,1.741,0,0,1,.767-.418l-.975-1.116a1.115,1.115,0,0,1,.034-.278,1.171,1.171,0,0,0,.035-.28.752.752,0,0,0-.419-.139.62.62,0,0,0-.279.07q-.559.14-.627.558a1.1,1.1,0,0,1-.419.7l.419.488-.7.279c.046.279.14.418.279.418Zm1.673,5.647.278.139a.273.273,0,0,0,.279-.209,1.675,1.675,0,0,1,.21-.418h-.21a.343.343,0,0,0-.313.173,1.644,1.644,0,0,1-.244.314m.278-7.668,1.464-.7q2.788-1.673,5.438-3.625a1.206,1.206,0,0,0,.453-.383,1.5,1.5,0,0,1,.384-.383,9.3,9.3,0,0,0,1.742-1.116l1.534-1.255,2.44-2.091q1.185-1.184,2.545-2.719a10.55,10.55,0,0,0,1.986-3.137q.139-.487.245-.941a1.865,1.865,0,0,0-.035-.941,1.283,1.283,0,0,0-1.394-1.186,1.859,1.859,0,0,0-.836.209l-1.324.628a7.939,7.939,0,0,0-1.324.836,12.661,12.661,0,0,0-1.185,1.046,37.172,37.172,0,0,0-4.6,4.566,57.048,57.048,0,0,0-3.9,5.193q-.56.769-1.011,1.534t-1.011,1.533Zm.14-2.859c.045.187.139.279.279.279.047,0,.163-.093.349-.279-.094-.139-.187-.209-.279-.209a.57.57,0,0,0-.349.209m1.882,9.272a.754.754,0,0,0-.139-.419.471.471,0,0,0-.419-.209c-.233,0-.348.082-.348.244a1.408,1.408,0,0,0,.069.454.766.766,0,0,0-.488-.279c-.139,0-.233.164-.279.488l.767.209a.916.916,0,0,1,.314-.209,4.2,4.2,0,0,0,.523-.279m-1.324-9.829a2.952,2.952,0,0,0,.419-.245c.092-.069.209-.15.348-.245.092-.092.092-.219,0-.383s-.047-.289.139-.383a2.729,2.729,0,0,0-.836.453c-.187.163-.209.429-.07.8m1.534-2.231q-.559.071-.488.488l.279.139Zm.209,10.666c-.139.094-.255.174-.349.244s-.093.174,0,.313a.321.321,0,0,0,.349.209.6.6,0,0,0,.419-.209,2.126,2.126,0,0,1-.419-.557m1.046-12.2a1.2,1.2,0,0,0-.557-.209.975.975,0,0,0-.419.07,1.343,1.343,0,0,0,.627.279.469.469,0,0,0,.349-.139m-.069.487a1.592,1.592,0,0,0-.488-.069q-.28,0-.21.557a1.134,1.134,0,0,1,.384-.174c.115-.023.221-.127.314-.314m1.046-1.742-.069-.419a.519.519,0,0,0-.488.175,1.53,1.53,0,0,0-.419.593Zm-.349-.7a1.643,1.643,0,0,0,.7.209c.185,0,.279-.069.279-.209q.278-.487-.349-.627Zm.07,13.732a2.546,2.546,0,0,0,.627.071l.348.209c.046.233.163.348.349.348a1.061,1.061,0,0,0,.418-.139.425.425,0,0,0,.279-.314.368.368,0,0,0-.069-.384q-.279-.209-.174-.418a.385.385,0,0,0,.034-.348,1,1,0,0,0-.7-.349,1.314,1.314,0,0,0-.523.1,1.326,1.326,0,0,1-.523.1,3.678,3.678,0,0,1-.035.523,4.2,4.2,0,0,0-.034.592m.906-15.126c.139.278.279.418.419.418a.6.6,0,0,0,.418-.209l.7-.7a2.126,2.126,0,0,0-.628-.07h-.139a.9.9,0,0,1-.349.314,3.8,3.8,0,0,0-.419.245m1.046-.838a.317.317,0,0,1,.314.035.619.619,0,0,0,.314.1c.185,0,.278-.185.278-.558q.558-.277.349-.488a.56.56,0,0,0-.349-.069h-.139a2.231,2.231,0,0,0-.245.139,1.761,1.761,0,0,0-.244.209,1.075,1.075,0,0,1-.279.209q-.141.071,0,.418m2.789-2.37c.092-.185.174-.359.243-.523a5.293,5.293,0,0,1,.314-.593h-.628a.447.447,0,0,0-.487.419q-.071.279.279.418l-.627.069c-.325,0-.442.117-.349.349a.447.447,0,0,0,.488.419,1.069,1.069,0,0,0,.419-.139,1.025,1.025,0,0,0,.174-.21,1,1,0,0,1,.175-.209m2.161-3.277a.855.855,0,0,0-.8.419,1.721,1.721,0,0,1-.593.627.309.309,0,0,0-.069.489,1.05,1.05,0,0,0,.418.139c.185,0,.279-.045.279-.139a.41.41,0,0,1,.173-.384,1.652,1.652,0,0,0,.314-.244c.279-.279.349-.533.209-.767a1.2,1.2,0,0,0,.349.139q.138,0,.278-.209a.57.57,0,0,0-.419-.14c-.093,0-.139.024-.139.07m2.161-1.6-1.394,1.184c.093.233.209.349.348.349a.284.284,0,0,0,.209-.069q.349-.209.7-.383a3.974,3.974,0,0,0,.7-.453Zm1.325.279q.138-.139-.1-.209a1.519,1.519,0,0,0-.384-.069c.046.233.115.348.209.348a.63.63,0,0,0,.279-.069m-.209-.836a.492.492,0,0,0,.487.349,1.572,1.572,0,0,0,.314-.035,1.646,1.646,0,0,1,.314-.035.4.4,0,0,1,.279.07,1.394,1.394,0,0,1,.349-.453,1.385,1.385,0,0,0,.349-.453,1.578,1.578,0,0,0-.488-.07q-.209,0-.488.558a.754.754,0,0,0-.557-.21.806.806,0,0,0-.558.279m2.857.279a.77.77,0,0,0,.349.07.737.737,0,0,0,.383-.1c.115-.07.244-.15.383-.244q-.907-.558-1.116.279m1.882,1.255a.878.878,0,0,0,.071-.557c-.187.093-.268.173-.245.243a1.477,1.477,0,0,0,.174.314" transform="translate(-60.069 -67.813)" fill="#fff"/>
    <path id="Path_77" data-name="Path 77" d="M194.26,197.974a19.054,19.054,0,0,0,6.135-1.394l3.276-1.534c.511-.324.976-.628,1.394-.906s.837-.533,1.255-.767a1.805,1.805,0,0,0,.383-.349c.115-.139.22-.255.314-.349l.906-.487a.619.619,0,0,1,.279-.071.719.719,0,0,1,.7.488.556.556,0,0,1-.069.836q-.42.418-.8.836a3.2,3.2,0,0,1-.941.7,5.727,5.727,0,0,0-.8.487q-.385.28-.732.558-1.4.767-2.719,1.429t-2.719,1.289q-.767.281-1.6.523t-1.673.453a11.345,11.345,0,0,1-1.254.209,12,12,0,0,1-1.325.069,11.314,11.314,0,0,1-2.335-.383,5.934,5.934,0,0,1-2.126-1.08,2.946,2.946,0,0,1-1.185-3.207,11.852,11.852,0,0,1,.349-1.43,4.067,4.067,0,0,1,.628-1.22,1.322,1.322,0,0,1,1.045-.487,1.009,1.009,0,0,1,.837.348.793.793,0,0,1,.139.906l-.418.7a1.906,1.906,0,0,0-.384,1.987,1.991,1.991,0,0,0,1.29,1.36q.557.14,1.08.245c.349.069.708.151,1.08.243m-4.67-2.091c.047.233.116.349.209.349a.279.279,0,0,0,.279-.139.543.543,0,0,0-.487-.209m.349,1.046q.068.489.418.488c.139,0,.279-.115.419-.349.093-.186,0-.279-.28-.279h-.139Zm4.531-9.132a1.8,1.8,0,0,1-.558,1.43,1.887,1.887,0,0,1-1.394.662c-.094,0-.151-.011-.175-.035a.279.279,0,0,0-.173-.035,1.818,1.818,0,0,1-1.325-1.534,5.58,5.58,0,0,1,.069-.906,1.221,1.221,0,0,1,.558-.767l.558-.488a1.918,1.918,0,0,1,.976-.349q1.256,0,1.394,1.464a1.462,1.462,0,0,1,.07.558m-2.649,10.178c-.233-.092-.488-.185-.767-.279,0,.279.035.442.1.488a.427.427,0,0,0,.245.069.974.974,0,0,0,.418-.069Zm-.209-10.736a3.121,3.121,0,0,0-.1.872.98.98,0,0,0,.383.453l.488.349a1.689,1.689,0,0,0,.976-.209,1.93,1.93,0,0,0,.488-.558q.208-.418-.279-.906v-.209q-.209-.418-.488-.418a.624.624,0,0,0-.278.069,5.011,5.011,0,0,0-.593.279,4.618,4.618,0,0,1-.593.279m2.3,11.711-.418-.279q-.28.418,0,.558Zm.488.07a.329.329,0,0,0,.349.279.308.308,0,0,0,.14-.035.307.307,0,0,1,.139-.035.48.48,0,0,0,.209-.627.829.829,0,0,0-.523.139,4.129,4.129,0,0,0-.313.279m2.927-.279a1.139,1.139,0,0,0-.836-.278h-.418a.524.524,0,0,0-.314.139c-.117.093-.128.233-.034.418Z" transform="translate(-81.321 -80.134)" fill="#fff"/>
    <path id="Path_78" data-name="Path 78" d="M218.018,201.921q.906-.557,1.742-.976t1.743-.906l2.23-1.465,3.835-2.231a2.358,2.358,0,0,1,1.045-.279.861.861,0,0,1,.871.383.933.933,0,0,1,.035,1.011q-.279.56-.523,1.151a2.646,2.646,0,0,1-.732,1.01,2.977,2.977,0,0,0-.872,1.29,10.269,10.269,0,0,0-.383,1.568q0,.559.837.8a4.939,4.939,0,0,0,1.254.243,2.055,2.055,0,0,0,.349-.035,2.31,2.31,0,0,1,.348-.035,22.62,22.62,0,0,0,4.671-.976,20.02,20.02,0,0,0,2.963-1.15,21.479,21.479,0,0,1,2.893-1.15c.511-.325.917-.593,1.22-.8a3.068,3.068,0,0,1,1.011-.453,1.267,1.267,0,0,0,.593-.279,2.573,2.573,0,0,1,.523-.348l2.58-1.534a1.127,1.127,0,0,1,.487-.139.742.742,0,0,1,.767.7,1.376,1.376,0,0,1-.627,1.324l-3.207,1.813a15.4,15.4,0,0,0-1.638.8q-.8.454-1.569.8-1.186.56-2.37,1.115a15.26,15.26,0,0,1-2.439.907,7.657,7.657,0,0,1-2.231.7,14.184,14.184,0,0,0-2.021.419,5.923,5.923,0,0,1-1.046.14c-.233,0-.478-.013-.732-.036s-.5-.035-.732-.035c-.374-.046-.722-.093-1.046-.139a5.011,5.011,0,0,1-1.046-.279,3.091,3.091,0,0,1-1.43-1.325,2.641,2.641,0,0,1-.314-2.09q.07-.349.14-.662a7.074,7.074,0,0,1,.209-.732,4.376,4.376,0,0,0-1.011.383q-.454.245-.871.453-.7.419-1.359.871a11.615,11.615,0,0,1-1.36.8q-.768.418-1.464.8t-1.464.732a6.1,6.1,0,0,1-1.394.418h-.349q-1.533,0-1.255-1.743a4.061,4.061,0,0,1,.523-1.394,8.7,8.7,0,0,1,.871-1.185l2.091-2.44.767-.7a.773.773,0,0,1,.627-.418,1.216,1.216,0,0,1,.487.209,1,1,0,0,1,.419,1.324,5.027,5.027,0,0,1-.313.418,4.67,4.67,0,0,0-.314.419,4.41,4.41,0,0,1-.419.487,1.905,1.905,0,0,0-.348.488,8.641,8.641,0,0,0-.627.7q-.279.35-.558.768l-.628.139a.284.284,0,0,0-.209-.07c-.185,0-.3.163-.349.488a6.36,6.36,0,0,1,1.116-.07m-.907,1.743a.621.621,0,0,0,.035-.349.292.292,0,0,1,.105-.279.947.947,0,0,1,.314-.209.9.9,0,0,0,.313-.209.7.7,0,0,0-.453-.28,2.558,2.558,0,0,0-.523-.069.6.6,0,0,0-.419.209c-.185-.325-.349-.488-.488-.488h-.349v.7l.349.487c.139.373.326.558.557.558a1.8,1.8,0,0,0,.558-.069m-.558-2.58c-.139.14-.115.209.07.209a3.773,3.773,0,0,0,.767-.139q-.139-.14,0-.349c.094-.14-.023-.255-.349-.349Zm1.883-2.022a.273.273,0,0,0,.279.209q.14,0,.279-.209a.6.6,0,0,0,.175-.279c.023-.093-.081-.185-.314-.279Zm9.69-.906q.418-.138.453-.279a2.714,2.714,0,0,0-.035-.7c-.233-.046-.418-.081-.557-.1a2.322,2.322,0,0,0-.349-.035q-.419,0-.628.558a1.027,1.027,0,0,0,.593.1c.209-.023.337.1.384.384q-.35-.348-.418-.349a.435.435,0,0,0-.245.069l-.314.209H226.8a.6.6,0,0,1-.175-.279.166.166,0,0,0-.174-.139.286.286,0,0,0-.21.07,1.055,1.055,0,0,1-.418.173c-.139.024-.163.175-.069.454l.487-.209h.489a.689.689,0,0,0-.07.314.708.708,0,0,1-.139.383q-.28-.488-.419-.488a.566.566,0,0,0-.349.209l-.837.349a.578.578,0,0,0,.384.209h.383l-.419.557a3.872,3.872,0,0,0,.906.14,2.07,2.07,0,0,0,1.046-.279,4.256,4.256,0,0,0,.906-.7,2.158,2.158,0,0,0-.035-.279.558.558,0,0,1,.035-.349" transform="translate(-92.67 -84.569)" fill="#fff"/>
    <path id="Path_79" data-name="Path 79" d="M271.547,197.316a1.312,1.312,0,0,0,.28.623,1.771,1.771,0,0,0,.7.621,11.2,11.2,0,0,0,2.231,1.142,8.409,8.409,0,0,0,2.579.517,12.623,12.623,0,0,1,1.29.069l1.289.139h1.465l1.882-.139.836-.137a8.268,8.268,0,0,0,.906-.207c.511-.092,1.011-.194,1.5-.309a8.3,8.3,0,0,0,1.5-.516l1.324-.412,1.6-.689a13.686,13.686,0,0,0,2.4-1.2,21.1,21.1,0,0,1,2.126-1.2l.419-.275a1.559,1.559,0,0,1,.487-.207,2.975,2.975,0,0,1,.487-.139.856.856,0,0,1,.768.487,1,1,0,0,1,.035.7.977.977,0,0,1-.454.627q-.489.28-.906.523a3.926,3.926,0,0,1-.907.384c-.139.093-.291.186-.453.278s-.337.187-.523.279q-.349.142-.7.314t-.7.384l-1.186.628a2.115,2.115,0,0,1-.383.209c-.117.046-.244.093-.383.139l-1.952.766a16.6,16.6,0,0,1-4.462,1.185q-.976.211-2.056.349a16.451,16.451,0,0,1-2.126.139,26.138,26.138,0,0,1-3.032-.175,12.213,12.213,0,0,1-2.963-.732l-1.812-.7a6.047,6.047,0,0,1-1.359-.837q-.594-.487-1.15-1.046a2.476,2.476,0,0,1-.836-2.37,1.824,1.824,0,0,1,.07-.557,3.026,3.026,0,0,1,1.5-2.44,9.786,9.786,0,0,1,2.753-1.185,1.2,1.2,0,0,1,.488-.07,1.477,1.477,0,0,1,1.324.9,1.85,1.85,0,0,1-.279,2.142,8.619,8.619,0,0,1-1.464,1.175,3.817,3.817,0,0,1-1.812.553Zm2.58-3.441a.537.537,0,0,0-.419-.383,1.313,1.313,0,0,1-.627-.314q-.42.35-.139.419t0,.349a1.7,1.7,0,0,0-.837-.419.321.321,0,0,0-.348.209,1.7,1.7,0,0,1-.349.453,2.3,2.3,0,0,1-.488.243c.14.233.1.383-.1.454a.836.836,0,0,0-.453.313.86.86,0,0,0-.209.349,2.712,2.712,0,0,0,0,.906l.419.906.279.418a.434.434,0,0,0,.139-.314.432.432,0,0,1,.139-.313q-.627-.628.07-1.6l.383.384a.612.612,0,0,0,.453.174c.139,0,.324-.139.557-.419h.209a.7.7,0,0,0,.558-.244q.209-.244.418-.453a.4.4,0,0,0,.279.139c.233,0,.36-.15.384-.453a.993.993,0,0,0-.313-.8m-2.161,1.046a2.448,2.448,0,0,0-.349.279l-.418.279c-.047,0-.1-.057-.175-.174s-.128-.175-.173-.175a3.32,3.32,0,0,1,.383-.278,1.232,1.232,0,0,1,.383-.21Zm.349.418c-.047.047-.117.129-.209.245s-.163.173-.209.173Z" transform="translate(-116.155 -82.937)" fill="#fff"/>
    <path id="Path_80" data-name="Path 80" d="M121.775,78.563a.427.427,0,0,1-.055.1.42.42,0,0,0-.054.1q-.154.351-.3.706c-.1.238-.206.473-.322.706a1.565,1.565,0,0,1-.312.411,1.5,1.5,0,0,1-.426.285,1.382,1.382,0,0,1-.508.115,1.432,1.432,0,0,1-.546-.088,1.288,1.288,0,0,1-.678-.5,4.092,4.092,0,0,1-.371-.734c-.059-.153-.12-.3-.185-.454s-.131-.3-.2-.444a.278.278,0,0,0-.077-.088.176.176,0,0,0-.109-.044.107.107,0,0,0-.1.077.594.594,0,0,0-.016.142q0,.3-.011.591t0,.591a.949.949,0,0,1-.264.668.93.93,0,0,1-.716.285,1.039,1.039,0,0,1-.694-.241.91.91,0,0,1-.308-.69q-.022-.426-.011-.86t0-.86c0-.124-.005-.245-.016-.362s-.016-.237-.016-.361c0-.146.006-.294.016-.444s.016-.3.016-.444c0-.19-.005-.382-.016-.575s-.016-.384-.016-.574q0-.339.006-.668t.027-.657a.894.894,0,0,1,.06-.247.615.615,0,0,1,.137-.214,2.106,2.106,0,0,1,.569-.394,1.1,1.1,0,0,1,.69-.066A1.133,1.133,0,0,1,117.8,74q.306.69.6,1.374t.581,1.374c.065.154.126.309.18.466s.112.316.17.476a.974.974,0,0,0,.136.247.338.338,0,0,0,.258.115.268.268,0,0,0,.268-.088,1.017,1.017,0,0,0,.137-.252l.525-1.259.581-1.358c.08-.19.16-.382.241-.575s.168-.386.263-.575a1.086,1.086,0,0,1,.4-.471,1.124,1.124,0,0,1,.547-.18,1.189,1.189,0,0,1,.581.121,1.354,1.354,0,0,1,.51.433.766.766,0,0,1,.153.367c.022.142.036.279.044.411q.022.689.016,1.385t-.005,1.386q0,.635.005,1.265t-.005,1.254a1.49,1.49,0,0,1-.208.712.608.608,0,0,1-.345.279,1.276,1.276,0,0,1-.5.065,1.319,1.319,0,0,1-.5-.131.78.78,0,0,1-.345-.3.828.828,0,0,1-.1-.367q-.006-.181-.016-.367,0-.219.006-.433c0-.143,0-.286-.006-.432a1.022,1.022,0,0,0-.022-.214c-.015-.069-.072-.122-.175-.159m-5.142-2.069a.306.306,0,0,1,.171.131.713.713,0,0,1,.072.2,1.161,1.161,0,0,0-.149.066,1.219,1.219,0,0,1-.115.055c0,.073.018.117.055.131a.566.566,0,0,0,.126.033,1.293,1.293,0,0,1,.133.027c.04.011.06.049.06.115-.088.066-.159.079-.215.038s-.107-.081-.159-.125a.6.6,0,0,1-.136-.138c-.041-.054-.119-.06-.235-.016l.241.372a.254.254,0,0,1-.082.071.774.774,0,0,0-.093.061.165.165,0,0,0-.06.077c-.011.029,0,.065.039.109s.056.064.081.06a.152.152,0,0,0,.077-.038l.077-.066a.087.087,0,0,1,.081-.022c.118.168.212.255.281.263s.159-.062.269-.209l-.2-.142.121-.142a.462.462,0,0,0,.135.169c.054.041.1.024.135-.049a.28.28,0,0,1,.173-.192c.072-.018.148-.038.227-.06h-.011l-.148.131q-.074.066-.159.154l.066.318-.11.131c-.037.044-.081.092-.132.143.094.022.167.036.218.044a.23.23,0,0,0,.125-.011.181.181,0,0,0,.081-.082c.022-.04.051-.1.087-.17a.6.6,0,0,1,.1.055c.033.022.067.044.1.065a.47.47,0,0,1,.293-.2c.116-.022.251-.04.4-.054l-.394-.307a1.038,1.038,0,0,1,.131-.11c.051-.036.113-.084.187-.142h-.438c-.015-.08-.031-.157-.049-.23a.216.216,0,0,1,.016-.176.219.219,0,0,0,.044-.115.307.307,0,0,0-.017-.1c-.011-.032-.024-.065-.038-.1a.207.207,0,0,1-.011-.115c-.1.037-.193.073-.279.11s-.175.077-.268.121a.945.945,0,0,1,.049-.176.607.607,0,0,0,.039-.12.226.226,0,0,0-.022-.1c-.015-.028-.03-.058-.044-.088-.037.015-.072.028-.105.038a.351.351,0,0,0-.093.049.157.157,0,0,0-.044.082.61.61,0,0,1-.034.1l-.164-.471a.2.2,0,0,1,.181-.12,1.137,1.137,0,0,0,.225-.022c.2-.051.3-.143.274-.274a.4.4,0,0,0-.165-.22.435.435,0,0,0-.252-.109c-.044,0-.09,0-.138.006s-.1.009-.159.016l-.165-.252.176-.022a.347.347,0,0,0,.061-.005l.071-.017a.768.768,0,0,0-.347-.235q-.1-.005-.2.2a.648.648,0,0,1-.1-.049.31.31,0,0,0-.1-.039.234.234,0,0,0-.094.017l-.093.038.065.175a.193.193,0,0,0,.039.032.3.3,0,0,1,.038.034l-.033.044c-.059-.03-.118-.056-.176-.082s-.129-.061-.209-.1l.077.416.769.088-.088.394h-.3l.253-.208a2,2,0,0,0-.209-.044.213.213,0,0,0-.142.027.43.43,0,0,0-.131.137q-.066.1-.154.263c.044.022.086.042.126.06a.855.855,0,0,1,.126.071c-.052.087-.1.172-.154.252s-.105.168-.164.263c.059.022.113.044.164.066a.229.229,0,0,0,.132.022c.022,0,.038-.027.049-.082a.773.773,0,0,1,.039-.136l.115-.044.115-.044c.007-.007.013-.007.016,0a.019.019,0,0,0,.017.011c-.015,0-.024,0-.028.006a.042.042,0,0,1-.027.006l-.11.263c.058.058.1.075.137.049a.448.448,0,0,0,.093-.1c.036-.065.035-.109-.006-.131a.86.86,0,0,1-.115-.077m-.484-1.774.572-.373h-.259a.231.231,0,0,0-.237.154,2.209,2.209,0,0,0-.077.219m.434,3.876a1.4,1.4,0,0,0-.093-.192c-.032-.055-.093-.067-.18-.038a.157.157,0,0,0-.072.071c-.026.04-.031.068-.016.082a.273.273,0,0,0,.137.154q.082.033.225-.077m.69-.251a.251.251,0,0,1-.055.087c-.022.022-.029.036-.022.044l.164.121a.736.736,0,0,0,.049-.055c.018-.022.023-.036.016-.044a.189.189,0,0,0-.06-.071.821.821,0,0,1-.093-.082m1.566,1.413a1.9,1.9,0,0,0,.509-.17.221.221,0,0,0,.072-.246.518.518,0,0,0-.345.115,1,1,0,0,0-.235.3m.11-.679.039.038c.01.011.023.024.038.038a.171.171,0,0,0,.175-.044q.055-.066.011-.274a1.974,1.974,0,0,1-.148.137,1.425,1.425,0,0,0-.115.1m.252.865c-.066.051-.1.084-.1.1a.043.043,0,0,0,.01.049.282.282,0,0,1,.034.049.656.656,0,0,1,.065-.039.141.141,0,0,0,.055-.049c.007-.007,0-.02-.016-.039a.238.238,0,0,1-.049-.071m.624-1.588a.525.525,0,0,0-.208.061.988.988,0,0,0-.159.109c-.048.04-.095.079-.143.115a.314.314,0,0,1-.159.066.834.834,0,0,0,.191.137.164.164,0,0,0,.154,0,.461.461,0,0,0,.148-.154,2.357,2.357,0,0,0,.175-.334m-.471,1.315c-.044.073-.058.127-.044.164a.146.146,0,0,0,.11.077.053.053,0,0,0,.027-.011c.011-.007.031-.018.06-.033a.618.618,0,0,0-.071-.1c-.026-.03-.053-.063-.082-.1m.176-.647a.162.162,0,0,0-.022.066l.537.164a.726.726,0,0,1,.263.148.382.382,0,0,0,.307.082.615.615,0,0,1,.006-.093.067.067,0,0,0-.016-.06,2.192,2.192,0,0,0-.324-.23.963.963,0,0,1-.291-.263Zm.405.591a.639.639,0,0,1-.022-.164.129.129,0,0,0-.044-.11.092.092,0,0,0-.121-.016.258.258,0,0,0-.088.115.185.185,0,0,1-.072.088.571.571,0,0,0-.082.065l.3.362.449-.241a.214.214,0,0,0-.06-.126.1.1,0,0,0-.082-.016.628.628,0,0,0-.093.032.11.11,0,0,1-.082.011m.372-1.128-.022.1a.449.449,0,0,0,.131.071.247.247,0,0,0,.209-.06Zm.055,1.15a.164.164,0,0,1-.022.065.324.324,0,0,0,.11.067.11.11,0,0,0,.06-.017.342.342,0,0,1,.06-.027.156.156,0,0,0-.011-.066.735.735,0,0,1-.1-.006.973.973,0,0,1-.1-.016m.383-.744q-.176-.165-.285.032c.058.059.107.082.148.071a.313.313,0,0,0,.137-.1m.339-1.676.044.088a.689.689,0,0,0,.395-.006,1.639,1.639,0,0,0,.361-.169c.015-.007.023-.028.023-.06a.519.519,0,0,1,.01-.1.6.6,0,0,0-.3.077.337.337,0,0,1-.3.01c-.022-.014-.056,0-.1.044l-.126.121m.011.888a.421.421,0,0,1,.044.1l.274-.11a.313.313,0,0,0-.2-.088.162.162,0,0,0-.115.1m.964-1.654a.248.248,0,0,0,.038.142.33.33,0,0,0,.088.088l.1.065a.261.261,0,0,1,.071.066,2.1,2.1,0,0,1-.1.2.326.326,0,0,0-.049.17.145.145,0,0,0,.082.153.364.364,0,0,0,.18.022.063.063,0,0,1,.044.022.176.176,0,0,0,.044.033.833.833,0,0,0,.312.049.74.74,0,0,0,.356-.126c-.088-.014-.16-.027-.219-.038s-.117-.02-.175-.027a1.786,1.786,0,0,1,.093-.3.38.38,0,0,0-.006-.3.328.328,0,0,1,.088.039.508.508,0,0,0,.088.044.21.21,0,0,0,.1.011.207.207,0,0,0,.121-.071c-.058-.066-.115-.127-.169-.187a1.443,1.443,0,0,1-.148-.186.445.445,0,0,1-.082-.148.9.9,0,0,0-.071-.159.429.429,0,0,0,.279.1,1.211,1.211,0,0,0,.291-.049l-.066-.383a.274.274,0,0,1-.148-.044c-.048-.029-.1-.059-.148-.087a.676.676,0,0,0-.159-.067.243.243,0,0,0-.181.033c.015.044.03.088.044.131a.145.145,0,0,1,0,.11c-.044.073-.045.126-.006.159a.7.7,0,0,1,.1.1.5.5,0,0,1-.214-.067.138.138,0,0,1-.06-.175.34.34,0,0,0,.006-.159.261.261,0,0,0-.055-.1.543.543,0,0,0-.1-.087.674.674,0,0,1-.115-.11v.318A.268.268,0,0,0,122,75.5a.64.64,0,0,0-.153.054.484.484,0,0,1-.142.049.23.23,0,0,0-.17.11.3.3,0,0,0-.027.208.1.1,0,0,0,.1.006l.1-.055a.283.283,0,0,1,.1-.033c.033,0,.064.017.094.061l-.461.438.1.2a1.128,1.128,0,0,0-.279.043c-.026.015-.039.073-.039.176l.646.065a.142.142,0,0,0,.016-.093c0-.04-.006-.081-.006-.121a.174.174,0,0,1,.033-.1.2.2,0,0,1,.143-.054m-.668,1.193a.231.231,0,0,1-.049.082c-.018.018-.024.035-.016.049a.1.1,0,0,0,.077.1c.015.007.035,0,.06-.023s.039-.036.039-.044a.287.287,0,0,0-.039-.071c-.018-.026-.042-.056-.071-.093m.077-.065a1.273,1.273,0,0,1,.219.126.414.414,0,0,0,.208.082,2.08,2.08,0,0,0,.4.027c.135,0,.272-.006.411-.006.015,0,.028-.016.038-.049a.344.344,0,0,1,.039-.082l-.657-.263a.406.406,0,0,0-.082.055c-.026.022-.053.044-.082.065a1.761,1.761,0,0,0-.169-.093.2.2,0,0,0-.1-.022.193.193,0,0,0-.093.044,1.353,1.353,0,0,0-.126.115m.065.372.033.088a.97.97,0,0,1,.121-.039.834.834,0,0,0,.121-.038c-.066-.065-.121-.091-.164-.077a.309.309,0,0,0-.06.028.23.23,0,0,0-.049.038m.876-2.716c-.051-.059-.1-.111-.147-.159s-.126-.049-.236-.006a.246.246,0,0,0,.159.169.43.43,0,0,0,.224-.005m.3-.635c-.051-.044-.089-.078-.115-.1a.176.176,0,0,0-.082-.049c-.117-.007-.175.051-.175.175,0,.015.014.036.044.065s.051.044.065.044a.942.942,0,0,0,.115-.055c.04-.022.089-.047.148-.076m-.219.569a.379.379,0,0,0,.175.131.126.126,0,0,0,.121-.055.032.032,0,0,0,.005-.032.207.207,0,0,1,.006-.077Zm.065,3.121a.466.466,0,0,0,.252-.016.239.239,0,0,0,.109-.169.244.244,0,0,0-.006-.154c-.018-.044-.068-.058-.148-.044Zm.417-3.263a.4.4,0,0,0-.006.29.332.332,0,0,0,.235.115c.109.022.173.026.192.01a.4.4,0,0,0,.049-.186Zm.438,2.245.055-.055a.772.772,0,0,0-.148-.2.355.355,0,0,0-.192.011Zm-.088,1.358.1-.055c-.015-.037-.027-.073-.039-.109a.429.429,0,0,0-.049-.11c-.007-.007-.031,0-.071.011a1,1,0,0,0-.1.044.038.038,0,0,0-.022.038.194.194,0,0,1-.011.061Zm.109-1.161a.356.356,0,0,0-.065-.055.761.761,0,0,1-.11.055.172.172,0,0,0-.088.076q-.022.022-.005.077a.388.388,0,0,1,.016.11.216.216,0,0,1,.1-.022.087.087,0,0,0,.077-.032.25.25,0,0,0,.044-.1.567.567,0,0,1,.032-.109m.088-2.541a.4.4,0,0,0-.176-.087c-.051-.007-.106.028-.164.109a.379.379,0,0,0,.176.071.5.5,0,0,0,.164-.093m-.176,1.49c.014-.036.028-.066.038-.088a.143.143,0,0,0,.017-.067.124.124,0,0,0-.027-.06c-.018-.026-.035-.035-.049-.027a.2.2,0,0,0-.061.033c-.018.014-.038.03-.06.044Z" transform="translate(-49.811 -31.613)" fill="#fff"/>
    <path id="Path_81" data-name="Path 81" d="M140.957,81a.778.778,0,0,1-.52-.143,1.141,1.141,0,0,1-.378-.471.815.815,0,0,0-.3-.372.8.8,0,0,0-.454-.1q-.394.011-.794.011h-.793a.622.622,0,0,0-.69.449.95.95,0,0,1-.17.307.733.733,0,0,1-.241.186.99.99,0,0,1-.3.088c-.106.015-.214.026-.324.033a.834.834,0,0,1-.5-.109,1.346,1.346,0,0,1-.383-.351.65.65,0,0,1-.143-.426,1.54,1.54,0,0,1,.088-.438l.307-.909c.015-.036.028-.072.038-.1s.024-.067.039-.1l.384-.964q.066-.175.142-.345c.051-.113.1-.228.142-.345a2.874,2.874,0,0,0,.1-.372,1.28,1.28,0,0,1,.126-.351,3.619,3.619,0,0,0,.208-.476c.059-.164.115-.329.17-.493s.109-.329.164-.493a4.188,4.188,0,0,1,.192-.477,2.971,2.971,0,0,1,.2-.361.8.8,0,0,1,.3-.274q.153-.088.307-.159a1.07,1.07,0,0,1,.317-.093,2.669,2.669,0,0,1,.635-.011,1.124,1.124,0,0,1,.592.252,2.869,2.869,0,0,1,.263.224.758.758,0,0,1,.187.268q.241.57.444,1.139t.421,1.15l.405,1.074q.219.581.433,1.145t.41,1.144a.878.878,0,0,1,.044.471.942.942,0,0,1-.187.411,1.021,1.021,0,0,1-.372.29,1.083,1.083,0,0,1-.515.1m-4.6-2.147c.051.1.091.152.121.148s.084-.064.164-.18l-.3.044c.007-.044.015-.089.022-.137s-.025-.074-.1-.082a.162.162,0,0,0-.175.055.624.624,0,0,0-.088.23Zm.372-.613a.953.953,0,0,0-.181-.291q-.049-.027-.192.126a.407.407,0,0,1,.17.109.212.212,0,0,0,.2.055m-.35.164a.581.581,0,0,0,.142.3.563.563,0,0,0,.307.1.305.305,0,0,0,.154-.017c.044-.018.066-.067.066-.148l-.362-.285-.148.022c-.047.007-.1.018-.158.033m.416-.942-.065-.055c-.036.022-.073.042-.11.06a.154.154,0,0,0-.077.082.117.117,0,0,0-.006.093c.011.04.02.078.028.115a.408.408,0,0,1,.1-.032.116.116,0,0,0,.077-.044.294.294,0,0,0,.028-.1.376.376,0,0,1,.027-.115m-.032-.164.077-.066q-.033-.186-.274-.175Zm-.132,2.267a.587.587,0,0,0,.121.143.182.182,0,0,0,.186.011c.015,0,.031-.013.049-.039s.024-.045.017-.06a.181.181,0,0,0-.148-.126.51.51,0,0,0-.192.027c0,.007-.011.022-.033.044m.164-.756q-.164.165-.032.285a.667.667,0,0,0,.279.154.838.838,0,0,0,.4-.011q-.2-.131-.351-.23t-.3-.2m.46-2.716a.38.38,0,0,1,.022-.121h-.285c.051.08.1.126.142.137a.15.15,0,0,0,.121-.016m.044,1.38-.054-.109a.14.14,0,0,0-.143.033.59.59,0,0,0-.11.219l.176-.088a1.032,1.032,0,0,1,.131-.055m.033.219a.247.247,0,0,0-.328.077q.164.154.208.142c.03-.007.069-.08.121-.219m-.154-.581a.8.8,0,0,1,.115.115.153.153,0,0,0,.082.06.169.169,0,0,0,.1-.011c.032-.015.064-.029.093-.044s.024-.027.027-.06a.085.085,0,0,0-.016-.071.292.292,0,0,0-.175-.066.124.124,0,0,0-.093.016,1.036,1.036,0,0,1-.138.06m.055,2.639a.666.666,0,0,0,.077-.121c0-.014-.018-.04-.055-.076l-.044.044a.2.2,0,0,0-.033.044.652.652,0,0,0,.055.109m2.278-4.38-.307-.164c-.037-.014-.024-.038.038-.071a.782.782,0,0,0,.181-.137,2.753,2.753,0,0,1-.4-.132.447.447,0,0,1-.246-.328.438.438,0,0,1-.126.1,1.3,1.3,0,0,0-.126.077.2.2,0,0,0-.076.1.3.3,0,0,0,.011.176c.088.014.173.027.257.038s.17.024.258.039a.732.732,0,0,1-.181.23c-.04.022-.1.011-.18-.033a.679.679,0,0,1-.11-.055.1.1,0,0,0-.1-.011.177.177,0,0,0-.088.077,1.135,1.135,0,0,1-.065.1.8.8,0,0,0-.154-.049.315.315,0,0,1-.131-.061.3.3,0,0,0-.154-.076.337.337,0,0,0-.147.011c-.048.015-.095.031-.143.049a.38.38,0,0,1-.136.028c-.007,0-.011.014-.011.044v.1l.372-.033a.262.262,0,0,1-.1.164.449.449,0,0,1-.154.06l-.159.032a.262.262,0,0,0-.131.072.771.771,0,0,0,.887-.055l.279.1c.084.028.17.061.258.1a1.068,1.068,0,0,1-.1.066c-.036.022-.08.051-.131.088a.793.793,0,0,0,.581-.022,2.72,2.72,0,0,1,.339-.11.777.777,0,0,1,.362,0,.087.087,0,0,0,.093-.01.588.588,0,0,1,.1-.055v-.088l-.909-.23a.366.366,0,0,0,.022-.088l.148.044.148.044c.044.015.088.027.131.038s.08-.016.109-.082l.274.088a2.166,2.166,0,0,0-.055-.257c-.022-.077-.091-.122-.208-.138l.022.209Zm-1.807,3.22c-.03-.051-.058-.1-.088-.143s-.084-.051-.164-.022a.1.1,0,0,0-.039.049.075.075,0,0,0-.005.06c.058.146.157.164.3.055m-.065-3.965a.345.345,0,0,1-.055.093c-.022.026-.03.042-.022.049a.192.192,0,0,0,.06.071l.082.06c.014-.014.031-.033.049-.055s.027-.036.027-.044a.326.326,0,0,0-.061-.082c-.025-.026-.052-.057-.081-.093m.284-.23a.3.3,0,0,0-.1-.071c-.032-.011-.064-.02-.093-.027-.014,0-.032.013-.055.039a.686.686,0,0,0-.055.071.231.231,0,0,1,.06.06.185.185,0,0,0,.071.061c.015.007.036,0,.065-.033s.066-.062.11-.1M138,76.253a.619.619,0,0,0-.252-.1.058.058,0,0,0-.044.027c-.015.018-.03.034-.044.049.014.014.033.031.055.049a.206.206,0,0,0,.065.038c.014.008.036,0,.065-.016a.5.5,0,0,1,.154-.049m-.263,2.935-.077.131.109.055a.058.058,0,0,0,.044-.027c.015-.018.019-.031.011-.038a1.1,1.1,0,0,0-.088-.121m.865-1.117h.126a.533.533,0,0,0,.148-.022.274.274,0,0,0,.169-.1.18.18,0,0,0,.006-.2,7.624,7.624,0,0,0-.35-.854.314.314,0,0,0-.082-.11.134.134,0,0,0-.115-.043.154.154,0,0,0-.11.06.41.41,0,0,0-.077.115q-.087.186-.159.367t-.126.367c-.08.241.011.376.274.4.044,0,.089,0,.136.006s.1.006.159.006m-.011-3.483a.461.461,0,0,0-.137-.235.29.29,0,0,0-.2-.049.161.161,0,0,0-.093.06.435.435,0,0,1-.082.082.989.989,0,0,1,.077.109.091.091,0,0,0,.077.055.446.446,0,0,0,.18.006c.063-.011.122-.02.181-.028m.055,1.567a.387.387,0,0,0,.126.186.124.124,0,0,0,.136-.022c.015-.007.022-.023.022-.049a.225.225,0,0,1,.011-.072Zm.11-1.895q.142.175.208.159t.208-.225c-.08.007-.15.015-.208.022a1.418,1.418,0,0,0-.208.044m.591.022-.11.065a.228.228,0,0,0-.088.154c-.007.015.006.035.038.06s.057.035.071.027a.237.237,0,0,0,.077-.06.191.191,0,0,0,.044-.082.1.1,0,0,0,0-.071.423.423,0,0,1-.028-.093m-.077.526a.159.159,0,0,0,.137.1.226.226,0,0,0,.148-.055.126.126,0,0,0,.011-.121c-.067-.051-.121-.064-.165-.038a.528.528,0,0,0-.131.115m.274,4.129c.073-.037.148-.073.225-.11a.7.7,0,0,0,.2-.143.548.548,0,0,1,.1-.077.331.331,0,0,0,.093-.082.4.4,0,0,0,.06-.121.382.382,0,0,0,0-.18l-.844.5q.121.142.176.22c-.109-.015-.176-.013-.2.006a.511.511,0,0,0-.088.18c.088.022.148.007.181-.044s.064-.1.093-.153m-.022-2.037a.974.974,0,0,0-.131-.055.131.131,0,0,0-.044.038.551.551,0,0,1-.044.049.657.657,0,0,0,.049.044A.08.08,0,0,0,139.4,77c.015,0,.029-.011.044-.032a.239.239,0,0,1,.076-.066m.154,1.413a.754.754,0,0,1-.115-.033.338.338,0,0,0-.115-.022.253.253,0,0,0-.093.049c-.033.026-.049.045-.049.06a.156.156,0,0,0,.11.154.152.152,0,0,0,.1.005.172.172,0,0,0,.065-.049.263.263,0,0,0,.044-.082.379.379,0,0,1,.038-.082c.044-.051.078-.093.1-.126a.148.148,0,0,0,.038-.082.109.109,0,0,0-.038-.071.987.987,0,0,0-.115-.093c-.029.051-.051.092-.065.12a.176.176,0,0,0-.022.077.122.122,0,0,0,.027.071c.019.026.046.061.082.1m.164-2.267c-.081-.044-.139-.059-.176-.044a.258.258,0,0,0-.109.1c.014.015.029.031.044.049a.059.059,0,0,0,.044.027.137.137,0,0,0,.066-.033l.131-.1m-.143,1.7a.193.193,0,0,1,.049-.065.059.059,0,0,0,.027-.044.191.191,0,0,0-.039-.049.074.074,0,0,0-.049-.027.088.088,0,0,0-.076.088c-.008.014,0,.029.022.044a.462.462,0,0,1,.065.055m.022-1.1c.088.117.168.125.241.022a.118.118,0,0,0,.01-.055.063.063,0,0,0-.01-.044c-.088-.065-.168-.04-.241.077m0,2.454a1.713,1.713,0,0,1,.542.186q.236.131.477.252l-.131.23q.274.142.361-.088a.23.23,0,0,0,0-.142.706.706,0,0,0-.055-.153.523.523,0,0,0-.1-.1c-.04-.029-.078-.055-.115-.077l.329-.339a.262.262,0,0,0-.208-.049.271.271,0,0,0-.126.093c-.032.044-.065.086-.1.126a.179.179,0,0,1-.148.061.307.307,0,0,0-.115-.2q-.093-.071-.213.027a.137.137,0,0,1-.115.033.664.664,0,0,0-.121-.011.236.236,0,0,0-.1.022c-.029.015-.047.059-.055.132m.307.734c.059-.066.084-.118.077-.159a.161.161,0,0,0-.077-.1.355.355,0,0,0-.148-.049c-.048,0-.093.038-.137.126a2.138,2.138,0,0,1,.285.187m.044-2.475a.317.317,0,0,0-.131-.077.084.084,0,0,0-.049.022.646.646,0,0,0-.049.044l.049.049a.073.073,0,0,0,.049.027c.014.008.032,0,.055-.016a.4.4,0,0,1,.077-.049m.132-.383a.678.678,0,0,1-.115-.072.1.1,0,0,0-.082-.027.149.149,0,0,0-.077.049c-.022.026-.043.049-.065.071a.762.762,0,0,1,.082.071.1.1,0,0,0,.071.039.132.132,0,0,0,.088-.039c.029-.026.062-.056.1-.093m.076,2.41-.11-.055a.189.189,0,0,0-.087-.022c-.015-.007-.031,0-.049.022s-.035.04-.049.055a.387.387,0,0,1,.06.048.253.253,0,0,0,.071.049Zm.088-1.49a.62.62,0,0,1-.1.077.479.479,0,0,1,.044.055c.014.022.029.03.044.022a.047.047,0,0,0,.039-.027.245.245,0,0,1,.038-.049c.007-.007,0-.018-.016-.032a.478.478,0,0,1-.049-.044m-.033.34a.784.784,0,0,0,.186.071.2.2,0,0,0,.126-.006.175.175,0,0,0,.082-.1,1.34,1.34,0,0,0,.066-.219.225.225,0,0,0-.126.032c-.033.022-.066.046-.1.071l-.1.082a.364.364,0,0,1-.132.066m.1.263c.007.1.042.157.1.164a1.421,1.421,0,0,1,.18.033.224.224,0,0,0,.17-.022.241.241,0,0,0,.093-.176Z" transform="translate(-58.217 -31.624)" fill="#fff"/>
    <path id="Path_82" data-name="Path 82" d="M151.973,77.4l.011-3.045a.991.991,0,0,1,.3-.745,1.009,1.009,0,0,1,.756-.274q.722,0,1.429.005t1.43.027a3.645,3.645,0,0,1,1.013.187,2.781,2.781,0,0,1,.9.515,5.107,5.107,0,0,1,.651.662,3.185,3.185,0,0,1,.477.8,2.682,2.682,0,0,1,.126.356,1.729,1.729,0,0,1,.059.356q.023.427.045.859a5.865,5.865,0,0,1-.022.86,3.2,3.2,0,0,1-.614,1.6,3.716,3.716,0,0,1-1.347,1.079,3.328,3.328,0,0,1-.837.284,3.818,3.818,0,0,1-.916.066q-.426-.021-.859-.016t-.86.006q-.2,0-.395.005t-.394-.005a.959.959,0,0,1-.684-.3,1,1,0,0,1-.258-.706q.011-.69.006-1.358t-.017-1.227m.6-1.719c-.022.022-.044.042-.066.06s-.03.031-.021.039.028.044.043.066a.217.217,0,0,0,.055.055.174.174,0,0,0,.055-.027c.029-.019.04-.035.033-.049a.215.215,0,0,0-.033-.06l-.065-.082m.241,1.029-.066-.1c-.015-.007-.032-.019-.055-.033a.055.055,0,0,0-.055-.011.289.289,0,0,0-.06.055c-.019.022-.038.044-.06.065a.759.759,0,0,1,.065.049.106.106,0,0,0,.066.027.219.219,0,0,0,.082-.016c.026-.011.054-.024.082-.039m.022,1.785a.574.574,0,0,0-.269-.055c-.026.015-.034.088-.027.219Zm.23,1.227c-.051-.036-.1-.071-.143-.1a.6.6,0,0,0-.152-.082.087.087,0,0,0-.088.006.81.81,0,0,1-.131.049c.08.08.151.149.213.208s.134.125.214.2l.077-.284.208.032.022-.088-.186-.088Zm-.2-2.694a1.131,1.131,0,0,1-.109-.061.318.318,0,0,0-.088-.038c-.015-.007-.031,0-.049.022s-.034.04-.049.055a.426.426,0,0,1,.071.065.207.207,0,0,0,.071.055c.015.007.034,0,.06-.022s.056-.048.093-.077m.515-2.18a.446.446,0,0,0-.378.011,2.144,2.144,0,0,0-.28.2.638.638,0,0,0,.34.016.657.657,0,0,0,.318-.224m-.329,4.3q.067-.3-.165-.307c-.014-.007-.038.006-.071.039s-.048.056-.048.072c0,.153.094.218.284.2m-.274-3.56a.621.621,0,0,0,.372,0,.6.6,0,0,0,.241-.274.561.561,0,0,0-.378.022.4.4,0,0,0-.236.252m.263.68c-.043-.022-.075-.039-.093-.049a.271.271,0,0,0-.061-.027.1.1,0,0,0-.043.011l-.043.022c.028.058.054.091.076.1s.061-.018.164-.055m.076-1.73a.546.546,0,0,0-.142-.077.733.733,0,0,0-.049.055.271.271,0,0,1-.06.055.424.424,0,0,1,.06.049.073.073,0,0,0,.049.027.145.145,0,0,0,.061-.038.9.9,0,0,1,.081-.071m-.088,1.5.515-.067c-.117-.138-.212-.2-.285-.2s-.15.095-.23.263m.284,3.942a.481.481,0,0,0,.138.082.226.226,0,0,0,.18-.027l-.2-.208.384.131a.718.718,0,0,0,.411.186.416.416,0,0,0,.322-.219l-.744.044.24-.2c-.059-.059-.111-.115-.158-.17a.72.72,0,0,0-.159-.136,4.664,4.664,0,0,0-.492-.329c-.015-.007-.035,0-.06.022l-.061.055c.066.059.127.114.187.165s.117.1.174.142a.5.5,0,0,0-.082.181.207.207,0,0,0,.05.136l-.121.154-.229.121a.453.453,0,0,0,.191.005c.018-.011.027-.056.027-.136m.756-5.663-.362.055q-.154.021-.3.054a.12.12,0,0,0-.06.061c-.018.033-.035.06-.049.082a.615.615,0,0,1,.092.06.109.109,0,0,0,.093.028,2.128,2.128,0,0,0,.405-.121.2.2,0,0,0,.077-.077,1.54,1.54,0,0,1,.1-.143m-.492,4.425.033-.088a1.2,1.2,0,0,0-.115-.038.94.94,0,0,1-.115-.039l-.033.088c.036.014.074.027.115.038s.078.024.115.038m.054,1.556a.284.284,0,0,0-.136-.088c-.04-.007-.082.04-.126.142Zm.187-1.3c-.153-.059-.249-.077-.285-.055s-.055.1-.055.23Zm.021-3.571c-.036-.022-.069-.044-.1-.065s-.051-.03-.066-.022a.144.144,0,0,0-.109.11.124.124,0,0,0,.038.066c.026.029.046.044.061.044a.182.182,0,0,0,.081-.049,1.229,1.229,0,0,1,.093-.082m.241,3.724a.478.478,0,0,1-.065-.077.21.21,0,0,0-.055-.055.06.06,0,0,0-.055.006l-.055.027c.014.03.028.057.039.082a.414.414,0,0,0,.049.082.146.146,0,0,0,.049-.022.757.757,0,0,1,.093-.044m-.022-2.081c-.007.088-.013.177-.016.269s-.006.18-.006.268c-.007.146-.014.288-.021.427a1.962,1.962,0,0,0,.021.416.568.568,0,0,0,.159.372.78.78,0,0,0,.4.11.7.7,0,0,1,.126.011.686.686,0,0,0,.126.011c.174.022.351.038.531.049a1.466,1.466,0,0,0,.541-.071q.264-.077.532-.169a.782.782,0,0,0,.421-.356,1.5,1.5,0,0,0,.126-.285q.048-.154.081-.307a3.386,3.386,0,0,0,.1-.964,1.626,1.626,0,0,0-.351-.909,1.382,1.382,0,0,0-.5-.433,1.185,1.185,0,0,0-.641-.1q-.219.011-.438.006c-.146,0-.292-.013-.438-.028a.784.784,0,0,0-.575.1.676.676,0,0,0-.214.52,2.9,2.9,0,0,0-.01.433c.007.113.01.262.01.444Zm.274-2.847a.249.249,0,0,1,.045-.066.147.147,0,0,0,.032-.055.086.086,0,0,1-.032-.022c-.009,0-.012,0-.012-.005s0-.005-.011-.005a.01.01,0,0,1-.011-.011.188.188,0,0,0-.076.077Zm.274,5.421a.443.443,0,0,1,.06-.082c.018-.018.023-.035.017-.049a.13.13,0,0,0-.044-.044.1.1,0,0,0-.055-.022.1.1,0,0,0-.077.1c0,.014.012.028.033.044a.424.424,0,0,1,.066.054m.23-5.224a.788.788,0,0,1-.061.087c-.019.022-.023.037-.016.044a.465.465,0,0,0,.121.088c.007,0,.018-.009.033-.027a.084.084,0,0,0,.022-.039Zm.624.318.088-.088a.28.28,0,0,1,.077-.055.364.364,0,0,1-.077-.077.088.088,0,0,0-.065-.044.09.09,0,0,0-.066.038.419.419,0,0,0-.054.082c-.009.015,0,.032.021.055a1.105,1.105,0,0,1,.077.088m.164,5.136a.445.445,0,0,1-.093-.049c-.026-.018-.042-.024-.049-.016a.228.228,0,0,0-.1.12c-.007.015,0,.031.022.049s.04.035.055.049Zm.471.033.033.12.088-.022a.441.441,0,0,0,.087-.032c.007,0,.01-.011.005-.033a.192.192,0,0,0-.016-.055c-.037.007-.069.013-.1.017s-.063.005-.1.005m.35-5.356a.322.322,0,0,1-.082-.065c-.019-.022-.035-.032-.049-.032a.626.626,0,0,0-.065.049c-.023.019-.045.035-.066.049a.48.48,0,0,1,.043.055c.015.022.029.03.044.022a.155.155,0,0,0,.072-.022c.026-.014.059-.033.1-.055m-.065.318a.484.484,0,0,1-.06.082A.072.072,0,0,0,156.3,75a.094.094,0,0,0,.1.077.042.042,0,0,0,.048-.011c.019-.015.039-.029.061-.044Zm.065,4.622c.022.19.085.248.186.176a.034.034,0,0,0,.011-.023.083.083,0,0,1,.011-.032.045.045,0,0,1,.011-.033c-.081-.036-.154-.065-.219-.088m.483.536.043-.1a.262.262,0,0,0-.088-.115.134.134,0,0,0-.143.006.055.055,0,0,0-.027.044.179.179,0,0,1-.027.065Zm.12-5.158c-.036-.073-.079-.111-.126-.115a.261.261,0,0,0-.158.049c-.016.007-.028.03-.039.065s-.009.062.006.077a.134.134,0,0,0,.136.06.326.326,0,0,0,.138-.071c.014-.015.022-.026.022-.033s.007-.018.022-.033m.131,4.863a.4.4,0,0,1-.049.077.093.093,0,0,0-.028.055.135.135,0,0,0,.044.044.105.105,0,0,0,.055.022.143.143,0,0,0,.044-.038.541.541,0,0,1,.044-.049c-.016-.014-.032-.029-.05-.044a.331.331,0,0,1-.06-.065m.428-4.1a.407.407,0,0,0,.087-.11.15.15,0,0,0-.054-.088c-.016.014-.032.031-.05.049a.349.349,0,0,0-.049.06Zm.065,2.212.351-.044.361-.044c-.123-.146-.238-.214-.339-.2s-.226.107-.372.29m.1-1.008-.065.121a.3.3,0,0,0,.044.038.037.037,0,0,0,.043.006.2.2,0,0,0,.066-.1Zm.164,1.446-.076-.022c-.022.036-.044.069-.066.1a.234.234,0,0,0-.043.1.177.177,0,0,0,.038.1.155.155,0,0,0,.071.065c.059.015.1,0,.109-.032a.219.219,0,0,0,.011-.121Zm.483-2.256a.244.244,0,0,1,.049-.071c.018-.018.023-.035.016-.049s-.01-.029-.032-.044a.111.111,0,0,0-.055-.022.068.068,0,0,0-.049.032.1.1,0,0,0-.028.055c0,.015.034.048.1.1" transform="translate(-65.554 -31.634)" fill="#fff"/>
    <path id="Path_83" data-name="Path 83" d="M173.171,80.987h-2.809c-.216,0-.429,0-.641.011a.786.786,0,0,1-.586-.241,1.05,1.05,0,0,1-.29-.591,4.7,4.7,0,0,1-.028-.876q.027-.427.038-.876c0-.161-.007-.321-.022-.482s-.022-.322-.022-.482.007-.309.022-.465.022-.313.022-.466a3.679,3.679,0,0,0-.027-.449,3.822,3.822,0,0,1-.027-.45,3.369,3.369,0,0,1,.022-.388c.014-.128.026-.257.032-.389a2.363,2.363,0,0,0-.032-.394,1,1,0,0,1-.006-.455.8.8,0,0,1,.176-.345.83.83,0,0,1,.312-.219,1.2,1.2,0,0,1,.405-.088,6.27,6.27,0,0,1,.7-.006q.35.016.7.016.317,0,.647-.006c.219,0,.434-.009.646-.016q.351-.011.685-.006t.685-.005a1.04,1.04,0,0,1,.427.088,1.013,1.013,0,0,1,.334.235.84.84,0,0,1,.192.34.824.824,0,0,1,.011.4,1.136,1.136,0,0,1-.345.613.8.8,0,0,1-.685.164,2.269,2.269,0,0,0-.351-.016c-.117,0-.237.005-.361.005q-.285-.01-.575-.005t-.575-.006a1.3,1.3,0,0,0-.465.038.786.786,0,0,0-.378.247.494.494,0,0,0-.148.372.45.45,0,0,0,.224.328.926.926,0,0,0,.537.164q.6-.01,1.194.033a.7.7,0,0,1,.291.088.961.961,0,0,1,.241.192.8.8,0,0,1,.158.263.823.823,0,0,1,.055.29.871.871,0,0,1-.23.591.859.859,0,0,1-.581.23L171.495,78a.705.705,0,0,0-.465.175.539.539,0,0,0-.181.416.476.476,0,0,0,.362.5,1.421,1.421,0,0,0,.213.027c.069,0,.14.009.214.016.2.014.394.026.591.033s.394.011.591.011a3.777,3.777,0,0,0,.416-.022c.139-.014.278-.026.417-.032a1.052,1.052,0,0,1,.942.416.8.8,0,0,1,.154.4.984.984,0,0,1-.055.438.923.923,0,0,1-.241.362.707.707,0,0,1-.394.186c-.146.015-.294.028-.444.039s-.3.024-.444.038Zm-3.439-5.826a.92.92,0,0,1-.109-.044.1.1,0,0,0-.077-.011.179.179,0,0,0-.049.044c-.018.022-.035.044-.049.066l.067.044a.071.071,0,0,0,.065.011.1.1,0,0,0,.065-.027c.022-.018.051-.045.088-.082m.154,2.114c-.1-.117-.168-.175-.2-.175s-.095.059-.2.175Zm.416-.854a1.669,1.669,0,0,0-.175-.143.278.278,0,0,0-.121-.049.147.147,0,0,0-.11.038c-.036.029-.084.069-.142.121l.131.175-.383-.022c0,.058,0,.109.006.153s.006.081.006.11a.743.743,0,0,0,.421-.121q.181-.12.367-.263m-.482,1.4a.953.953,0,0,1-.082-.071.073.073,0,0,0-.049-.027.083.083,0,0,0-.049.022c-.018.015-.034.03-.049.044a.637.637,0,0,1,.044.049.059.059,0,0,0,.044.027.062.062,0,0,0,.055-.006c.022-.011.051-.023.088-.038m-.11,1.643a.393.393,0,0,1-.022.039.363.363,0,0,0-.022.038.65.65,0,0,0,.065.038.061.061,0,0,0,.055.006.2.2,0,0,0,.077-.038.364.364,0,0,1,.077-.049.647.647,0,0,1-.049-.055q-.028-.032-.049-.032a.118.118,0,0,0-.066.022.253.253,0,0,1-.065.033m.065-1.117-.1.121a.459.459,0,0,0,.121.088c.015-.015.029-.031.044-.049a.087.087,0,0,0,.022-.049c0-.015-.03-.051-.088-.11m.209-3.592h-.252v.077h.252Zm-.209,1.161a.122.122,0,0,0,.055.044.27.27,0,0,1,.142-.1q.088-.027.181-.049a.834.834,0,0,0,.181-.066.273.273,0,0,0,.131-.164.566.566,0,0,0-.317-.016,2.324,2.324,0,0,0-.275.093.123.123,0,0,0-.065.11.8.8,0,0,1-.033.154m.033,1.73c.154.022.245-.022.274-.132a.119.119,0,0,0-.027-.06c-.019-.026-.035-.038-.049-.038-.132-.007-.2.069-.2.23m.274.372q-.154-.186-.23.044c.051-.007.093-.014.126-.022l.1-.022m-.175-.876q.252.12.328-.121a.173.173,0,0,0-.175-.028.611.611,0,0,0-.153.148m.022,2.1a1.018,1.018,0,0,1,.148.033.431.431,0,0,0,.126.022.161.161,0,0,0,.1-.032.174.174,0,0,0,.055-.121.113.113,0,0,0-.093-.148,1.053,1.053,0,0,0-.235-.027Zm.35-4.676a.757.757,0,0,1-.1-.061.733.733,0,0,0-.082-.049c-.015,0-.03.011-.044.033a.382.382,0,0,1-.044.055l.065.066a.305.305,0,0,0,.077.055.911.911,0,0,0,.131-.1m-.065,4.72a.924.924,0,0,1-.027.153q-.016.055.005.077l.22.241a2.128,2.128,0,0,0,.23.219q.077.055.131.005a.281.281,0,0,0,.077-.159Zm.318.854-.132-.066q-.032,0-.055.077a.375.375,0,0,0,.044.038.164.164,0,0,0,.055.027c.007.008.019,0,.033-.016a.693.693,0,0,1,.055-.06m.131-3.22c-.168.154-.2.281-.087.383a.22.22,0,0,0,.186.049.329.329,0,0,0,.2-.115c.1-.1.084-.176-.055-.219l.3-.241-.279-.072a.245.245,0,0,1-.17-.158.169.169,0,0,0-.131-.11.262.262,0,0,0-.22.077Zm.011-2.146c.058-.036.111-.073.159-.11s.057-.094.027-.175c-.007-.014-.033-.028-.077-.038a.121.121,0,0,0-.1.005q-.219.109-.011.318m.219,5.531a.234.234,0,0,1-.072-.055c-.018-.022-.034-.034-.049-.034a.076.076,0,0,0-.049.028l-.049.049a.614.614,0,0,1,.055.06.118.118,0,0,0,.055.038c.015.007.031,0,.049-.022s.038-.044.06-.066m.351-6.177a.3.3,0,0,0-.154-.044.161.161,0,0,0-.044.033l-.044.044a.4.4,0,0,1,.044.055c.014.022.029.028.044.022a.2.2,0,0,0,.065-.039l.088-.071m.416.339a.462.462,0,0,1-.088-.044.114.114,0,0,0-.066-.022.06.06,0,0,0-.044.027.085.085,0,0,0-.022.038.638.638,0,0,1,.044.049.128.128,0,0,0,.044.038.072.072,0,0,0,.048-.027.477.477,0,0,1,.082-.06" transform="translate(-72.809 -31.627)" fill="#fff"/>
    <path id="Path_84" data-name="Path 84" d="M193.788,77.077v1.364q0,.673-.011,1.363a2.234,2.234,0,0,1-.044.445,1,1,0,0,1-.2.41.734.734,0,0,1-.485.318,1.54,1.54,0,0,1-.572-.044,1.17,1.17,0,0,1-.468-.263.7.7,0,0,1-.207-.482c-.015-.175-.022-.35-.022-.526v-.515q.01-.788.016-1.582t.006-1.583c0-.211,0-.425-.011-.64s-.011-.433-.011-.652a2.372,2.372,0,0,1,.022-.318c.014-.109.029-.216.044-.317a.9.9,0,0,1,.158-.372.894.894,0,0,1,.278-.247.861.861,0,0,1,.354-.11,1.261,1.261,0,0,1,.387.028.928.928,0,0,1,.752,1q.01.69.005,1.364t-.005,1.363Zm-1.375.537a.287.287,0,0,0,.115.1.355.355,0,0,0,.121.034.452.452,0,0,0,.121-.006l.126-.021a2,2,0,0,0-.2-.159c-.07-.048-.163-.032-.279.049m.765-2.749h-.49c.065.073.116.128.152.164a.157.157,0,0,0,.1.056.14.14,0,0,0,.1-.056c.032-.036.078-.091.136-.164M192.9,76.1c.014-.037.028-.069.043-.1a.171.171,0,0,0,.022-.076.115.115,0,0,0-.033-.061c-.022-.024-.036-.034-.044-.027a.387.387,0,0,0-.077.049.706.706,0,0,1-.066.049Zm.179.131a.8.8,0,0,0-.154-.055.06.06,0,0,0-.044.028.08.08,0,0,0-.022.038.244.244,0,0,1,.039.049.045.045,0,0,0,.038.027c.015.009.034,0,.055-.016l.088-.071" transform="translate(-82.726 -31.627)" fill="#fff"/>
    <path id="Path_85" data-name="Path 85" d="M206.82,74.886V77.58q0,.351-.011.685c-.008.222-.015.451-.022.684,0,.147,0,.289.006.428a3.407,3.407,0,0,1-.017.427,1.2,1.2,0,0,1-.339.838,1.273,1.273,0,0,1-.844.345,1.185,1.185,0,0,1-1.084-.493l-.92-1.281-1.161-1.73-.121-.176a.307.307,0,0,0-.3-.06.245.245,0,0,0-.175.224c-.015.168-.026.336-.033.5l-.022.5c-.007.277-.009.557-.005.838s0,.561-.016.838a.771.771,0,0,1-.082.356.82.82,0,0,1-.22.268.862.862,0,0,1-.318.159,1.053,1.053,0,0,1-.388.027,1.87,1.87,0,0,1-.345-.071.794.794,0,0,1-.3-.18,1.109,1.109,0,0,1-.219-.3.828.828,0,0,1-.077-.366q.011-.483.006-.953t-.006-.953q0-.689.006-1.363t.006-1.364q0-.219-.011-.432t0-.433a1.5,1.5,0,0,1,.405-.942.667.667,0,0,1,.307-.209,2.064,2.064,0,0,1,.362-.076,1.879,1.879,0,0,1,.69.06,1.05,1.05,0,0,1,.57.433l1.062,1.533,1.018,1.478a.442.442,0,0,1,.039.044.283.283,0,0,1,.027.044.26.26,0,0,0,.34.121.2.2,0,0,0,.142-.121.428.428,0,0,0,.022-.2,2.921,2.921,0,0,0-.016-.307,1.673,1.673,0,0,1-.006-.306q.021-.383.033-.767a4.735,4.735,0,0,0-.044-.777,1.08,1.08,0,0,1,.033-.405,1.331,1.331,0,0,1,.164-.367,1.146,1.146,0,0,1,.269-.29,1.057,1.057,0,0,1,.345-.175.856.856,0,0,1,.449.011,1.228,1.228,0,0,1,.411.2,1,1,0,0,1,.285.333.635.635,0,0,1,.071.405,1.287,1.287,0,0,0-.006.307c.011.1.024.205.039.307M201.092,76.8c.1,0,.161-.009.175-.027a.346.346,0,0,0,0-.181l.5.154.044-.088q.021-.043,0-.055a.8.8,0,0,0-.126-.121,1.917,1.917,0,0,0-.159-.109l.285-.209a.494.494,0,0,0,.055.268.092.092,0,0,0,.142.027l.241-.154a.362.362,0,0,0,.154-.263c-.037-.014-.067-.025-.093-.032l-.082-.022a.5.5,0,0,1-.076-.005.53.53,0,0,0-.088-.006q.044-.175.148-.2a.838.838,0,0,1,.214-.027.568.568,0,0,0,.18-.028c.055-.018.086-.078.093-.18a.327.327,0,0,0-.12,0c-.044.007-.086.013-.126.016a.162.162,0,0,1-.1-.022.191.191,0,0,1-.066-.126l.252-.2a1.076,1.076,0,0,0-.339-.1.793.793,0,0,0-.307.027l-.175-.241a1.8,1.8,0,0,1-.164.148c-.051.04-.1.078-.154.115a.128.128,0,0,1,.016-.121,1.3,1.3,0,0,0,.072-.115.328.328,0,0,0,.038-.126.214.214,0,0,0-.082-.153,4.1,4.1,0,0,0-.373.24,1.726,1.726,0,0,1-.164.1.156.156,0,0,0-.065.18c-.036-.022-.073-.045-.109-.071s-.073-.052-.11-.082a.659.659,0,0,0-.072.388q.038.1.279.2a.751.751,0,0,1,.077.044.672.672,0,0,0,.077.044,1.659,1.659,0,0,1-.361-.06.706.706,0,0,0-.361-.005.176.176,0,0,0,.06.126.379.379,0,0,0,.109.06.861.861,0,0,0,.11.033.138.138,0,0,1,.082.055l-.077.284.5-.153a.771.771,0,0,0-.082.17c-.019.055.031.1.147.148a.171.171,0,0,1,.088.1.769.769,0,0,0,.077.148.6.6,0,0,0-.115-.033.334.334,0,0,1-.115-.044.441.441,0,0,1-.115-.115.179.179,0,0,0-.1-.082.143.143,0,0,0-.12.049,1.1,1.1,0,0,1-.131.1c-.022.014-.046.03-.072.044a.757.757,0,0,1-.093.044l.69.241a.412.412,0,0,0-.241.109.347.347,0,0,0-.077.274c.081-.022.156-.04.225-.055s.132-.029.192-.044c.036-.08.04-.14.011-.18a.521.521,0,0,0-.121-.115m-.81.054a.376.376,0,0,1,.022.11.163.163,0,0,0,.153.027c.044-.018.08-.082.11-.191Zm.076-2.069c.037.022.067.04.088.055a.1.1,0,0,0,.055.022.136.136,0,0,0,.1-.076.118.118,0,0,0-.027-.06c-.018-.026-.035-.039-.049-.039a.286.286,0,0,0-.071.039c-.025.018-.056.039-.093.06m.077,3.964c.139.117.255.136.35.055a.579.579,0,0,0,.132-.131l.109-.154c.007-.007-.006-.027-.038-.06s-.053-.046-.06-.039c-.08.051-.161.1-.241.159l-.252.169m.624-4.479c-.073-.1-.121-.155-.142-.159s-.073.035-.154.115Zm-.175,5.432a.207.207,0,0,1,.055-.055c.022-.015.03-.026.022-.033a.533.533,0,0,1-.044-.049.049.049,0,0,0-.088,0,.461.461,0,0,1-.044.049Zm.088-2.464-.1.121a.238.238,0,0,0,.049.038.286.286,0,0,0,.06.027.073.073,0,0,0,.049-.027c.018-.018.024-.031.016-.038a.3.3,0,0,0-.032-.049.376.376,0,0,1-.044-.071m.022-2.76.1.06a.293.293,0,0,0,.088.038c.015.008.029,0,.044-.022a.352.352,0,0,1,.044-.055.5.5,0,0,0-.142-.11c-.015-.007-.031,0-.049.022a.335.335,0,0,1-.082.067m.416,4.555a.685.685,0,0,1-.121-.1c-.03-.033-.052-.045-.066-.039a.322.322,0,0,0-.093.082,1.17,1.17,0,0,1-.082.093,1.052,1.052,0,0,1,.071.082c.026.033.046.046.06.039a.427.427,0,0,0,.1-.06c.033-.026.074-.056.126-.093m.1-4.578a.591.591,0,0,1,.049.1.083.083,0,0,0,.049.06.465.465,0,0,0,.213-.006.49.49,0,0,0,.224-.159ZM201.573,77q.154.154.274,0-.12-.164-.274,0m.9-.175.4-.175-.5-.3c-.051.059-.1.113-.136.164a1.591,1.591,0,0,1-.115.131c.022.051.051.073.088.065s.075-.016.115-.027a.172.172,0,0,1,.1,0c.029.011.044.057.044.137m.307-.876a.206.206,0,0,0,.148-.1.5.5,0,0,0,.027-.186c-.1.014-.162.045-.181.093a.315.315,0,0,0,.006.192m.471.394a3.42,3.42,0,0,1-.427-.044,1.257,1.257,0,0,0,.077.192.108.108,0,0,0,.077.065.14.14,0,0,0,.1-.049c.04-.036.1-.091.169-.164m-.3.767h.241v-.077h-.241Zm1.139,1.051a.235.235,0,0,0-.328.164q.153.055.218,0a.33.33,0,0,0,.1-.175,1.549,1.549,0,0,0,.142-.176l-.263-.077Zm.11.5a.5.5,0,0,0-.192.022.366.366,0,0,0-.093.164.339.339,0,0,0,.192-.027.211.211,0,0,0,.093-.159m1.5.482-.121.033-.088-.548.208-.164-.23-.143a1.637,1.637,0,0,0,.187-.06.227.227,0,0,0,.1-.071.2.2,0,0,0,.039-.1.916.916,0,0,0-.006-.169c.03.015.057.029.082.044a.321.321,0,0,0,.082.033c.03.015.059.027.088.039a.061.061,0,0,0,.066-.006.136.136,0,0,0,.032-.066c.007-.029.015-.059.022-.088l.055-.329a.234.234,0,0,0-.17-.055.744.744,0,0,0-.164.044c-.055.022-.115.044-.18.066a.664.664,0,0,1-.208.032l.307.3a.161.161,0,0,0-.137-.022.594.594,0,0,0-.121.06,1.307,1.307,0,0,0-.115.082.2.2,0,0,1-.131.044.97.97,0,0,0-.065-.126c-.03-.047-.037-.082-.022-.1a.127.127,0,0,0,.005-.121c-.018-.037-.038-.073-.06-.11a.529.529,0,0,1-.049-.1c-.011-.033.006-.071.049-.115a.5.5,0,0,1-.065-.055c-.022-.022-.04-.03-.055-.022a.621.621,0,0,0-.11.033l-.11.044c.015.073.026.131.033.175a.466.466,0,0,1,.006.121.6.6,0,0,1-.027.121c-.015.044-.033.1-.055.175a.424.424,0,0,0-.022.187.194.194,0,0,0,.1.142.929.929,0,0,0,.181.088,1.791,1.791,0,0,1,.2.088v.537q-.2-.077-.219-.2A.905.905,0,0,1,205,78.61c-.073-.051-.14-.1-.2-.137a2.261,2.261,0,0,1-.2-.148l-.339.176.241.285c-.059-.007-.115-.013-.17-.016s-.1.042-.126.137c.08.058.142.071.186.038a.3.3,0,0,0,.1-.17.72.72,0,0,0,.154.011.238.238,0,0,0-.088.159.352.352,0,0,0,.027.136l.055.132a.216.216,0,0,1,.006.142,2.427,2.427,0,0,1,.5-.055.824.824,0,0,0,.449-.131c-.08.1-.117.168-.109.2s.073.073.2.132a1.458,1.458,0,0,0-.159.136c-.047.048-.111.045-.191-.006l.022-.241a.39.39,0,0,0-.2.088.807.807,0,0,0-.126.148q-.055.082-.109.159a.3.3,0,0,1-.143.11.345.345,0,0,0,.22.142.52.52,0,0,0,.213-.022c.069-.022.135-.043.2-.065a.26.26,0,0,1,.181,0l.383-.362-.3-.077a.29.29,0,0,0,.066-.175.6.6,0,0,0-.032-.187,1.1,1.1,0,0,1,.131.055c.044.022.1.048.176.077a.482.482,0,0,0-.126-.148.389.389,0,0,0-.18.016m-1.49-1.051a.3.3,0,0,1,.115.044l.093.06a.466.466,0,0,0,.088.044.133.133,0,0,0,.1-.006v-.8c-.154.014-.235.054-.246.121a.329.329,0,0,0,.071.23.983.983,0,0,0-.093.131,1.605,1.605,0,0,1-.126.175m.3,1.413c.029.161.1.23.219.209a.293.293,0,0,0,.126-.044c.032-.022.042-.076.027-.164Zm1.347-2.42c-.088-.023-.168-.044-.241-.067s-.146-.04-.219-.054a.226.226,0,0,0-.186.044c-.066.036-.1.078-.1.125a.152.152,0,0,0,.087.126c.227.139.445.081.657-.175m-.088-1.753c-.036.037-.069.071-.1.1s-.04.057-.032.072a.189.189,0,0,0,.066.087l.087.067a.484.484,0,0,1,.061-.071.184.184,0,0,0,.049-.082.12.12,0,0,0-.044-.077,1.1,1.1,0,0,1-.088-.1m-.121,3.658c.081-.014.16-.027.241-.038a.314.314,0,0,0,.186-.082.535.535,0,0,0,.154-.274.449.449,0,0,0-.088-.339.337.337,0,0,0-.2.121.753.753,0,0,0-.1.192c-.026.069-.051.142-.077.219a.584.584,0,0,1-.115.2m.23-2.168-.032.121.1.022a.27.27,0,0,0,.1,0c.007,0,.011-.015.011-.044a.237.237,0,0,1,.011-.076.734.734,0,0,1-.1-.006c-.03,0-.062-.009-.1-.016m.318.394a.69.69,0,0,1-.093-.044.131.131,0,0,0-.06-.022.185.185,0,0,0-.049.038l-.049.049a.82.82,0,0,1,.066.049.1.1,0,0,0,.065.028c.014.007.03,0,.044-.022a.4.4,0,0,1,.077-.077" transform="translate(-86.186 -31.616)" fill="#fff"/>
    <path id="Path_86" data-name="Path 86" d="M227.767,79.248h-.644a.475.475,0,0,0-.5.494l-.055.459a.757.757,0,0,1-.314.6,1.434,1.434,0,0,1-.6.186.913.913,0,0,1-.639-.154.972.972,0,0,1-.352-.558,2.221,2.221,0,0,1-.077-.581q0-.3.022-.591a2.548,2.548,0,0,0,.022-.329V77.649c0-.271,0-.54-.011-.811,0-.124-.005-.243-.017-.356a2.453,2.453,0,0,1-.006-.356q0-.273.011-.542t.011-.542a1.2,1.2,0,0,0,.006-.2c0-.065-.009-.131-.016-.2a1.494,1.494,0,0,1,.016-.494.636.636,0,0,1,.3-.394.313.313,0,0,0,.065-.06.689.689,0,0,0,.055-.071.656.656,0,0,1,.3-.247.667.667,0,0,1,.367-.038,2.855,2.855,0,0,0,.805.016,4.523,4.523,0,0,1,.8-.028q.362.011.723.011a4.618,4.618,0,0,1,.712.055,2.05,2.05,0,0,1,.865.328,2.763,2.763,0,0,1,1,1.041,3.213,3.213,0,0,1,.367,1.4,3.422,3.422,0,0,1-.054.822,3.133,3.133,0,0,1-.262.788,1.994,1.994,0,0,1-.371.515,4.724,4.724,0,0,1-.492.428,2.369,2.369,0,0,1-.972.454,4.077,4.077,0,0,1-1.07.071m-2.358-2.453c.029-.168.027-.264-.006-.29s-.134-.02-.3.016Zm-.177,1.84.077-.131a.763.763,0,0,0,.055-.11.1.1,0,0,1-.033-.022l-.044-.022a.139.139,0,0,0-.11.088.265.265,0,0,0,.054.2m1.113-3.954a.839.839,0,0,1-.138.011c-.048,0-.074.007-.082.022a.259.259,0,0,1-.143.181l-.209.082a3,3,0,0,0-.4.164.272.272,0,0,0-.082.066q-.039.043-.094.109a1.8,1.8,0,0,0,.776-.18.71.71,0,0,0,.369-.455m-.771,3.1c-.1-.087-.165-.129-.187-.125s-.059.06-.11.169a.974.974,0,0,1,.159-.027,1.284,1.284,0,0,0,.138-.017m-.056-3.22c0-.036,0-.058-.011-.065a.728.728,0,0,0-.1.006.862.862,0,0,1-.1.005.28.28,0,0,0,.011.088Zm.222,4.7a1.984,1.984,0,0,0-.2-.033c-.066-.007-.124.04-.175.142a.2.2,0,0,0,.115.027.218.218,0,0,0,.093-.032.782.782,0,0,0,.082-.06.192.192,0,0,1,.082-.044l-.044.175a.526.526,0,0,0,.231-.005c.059-.018.1-.089.132-.214Zm-.313-3.176a.438.438,0,0,1,.088.066c.022.022.036.03.044.022a.262.262,0,0,0,.1-.121c0-.007-.011-.023-.033-.049s-.04-.035-.055-.027a.434.434,0,0,0-.143.109m.633.833c-.118-.146-.213-.208-.287-.186s-.151.135-.231.339l.264-.081c.081-.026.165-.049.254-.072m.032-.482q-.165-.219-.237-.214t-.193.235Zm-.4,1.807.408.175a1.207,1.207,0,0,0-.093-.148.2.2,0,0,0-.077-.065.139.139,0,0,0-.088-.006,1.552,1.552,0,0,0-.149.044m.573.427-.351-.142-.219.274a.533.533,0,0,0,.329.142.817.817,0,0,0,.391-.142c-.028-.029-.055-.055-.08-.076s-.052-.044-.081-.067a.21.21,0,0,1,.113.011c.04.014.081.027.124.038a.277.277,0,0,0,.123.006.222.222,0,0,0,.124-.1,1.258,1.258,0,0,0-.156-.049.243.243,0,0,1-.123-.072c-.036-.036-.068-.069-.1-.1s-.068-.025-.119.011c-.073.043-.093.087-.06.131a.912.912,0,0,1,.082.132m-.485-2.782a.889.889,0,0,0,.17.067c.055.014.111-.011.169-.077-.065-.073-.126-.095-.18-.066s-.108.055-.159.076m.267,1.435a.4.4,0,0,1-.082-.06.075.075,0,0,0-.049-.027c-.015,0-.029.011-.044.032a.359.359,0,0,1-.044.055l.039.038a.051.051,0,0,0,.038.016.127.127,0,0,0,.055-.016c.022-.011.051-.023.087-.038m.383-2.826v-.318a.392.392,0,0,1-.154-.032.58.58,0,0,0-.153-.044.3.3,0,0,0-.148.016.306.306,0,0,0-.136.137Zm-.266.963a.3.3,0,0,1,.011-.1.873.873,0,0,1-.1-.006.864.864,0,0,0-.1-.006.148.148,0,0,1-.011.065ZM226,78.021l.507-.065c-.1-.168-.183-.247-.259-.235s-.16.111-.247.3m.2-.821-.111.362.507-.219Zm.242,1.851a.942.942,0,0,0-.1.109l.049.049a.076.076,0,0,0,.049.027.058.058,0,0,0,.044-.027c.015-.018.03-.034.044-.049a.727.727,0,0,0-.088-.109m.275-.767q-.149-.176-.192-.17c-.028,0-.075.075-.138.214Zm-.176.657.132.077a.279.279,0,0,0,.038-.049.264.264,0,0,1,.038-.049c-.015-.007-.031-.015-.049-.022a.144.144,0,0,0-.049-.011.072.072,0,0,0-.044.016.375.375,0,0,1-.065.038m.35-1.161c-.124-.131-.218-.131-.285,0a.041.041,0,0,0,.006.044.181.181,0,0,1,.027.066,1.136,1.136,0,0,0,.252-.11m-.285-1.4a1.054,1.054,0,0,0,.159.635.706.706,0,0,0,.539.186l.709.033a.944.944,0,0,0,.578-.093.826.826,0,0,0,.295-.575,2.46,2.46,0,0,0,.033-.613.542.542,0,0,0-.158-.351.614.614,0,0,0-.343-.187,3.124,3.124,0,0,0-.66-.038q-.333.016-.66.06a.433.433,0,0,0-.425.416Zm.285-1.161a.8.8,0,0,1-.071-.06.294.294,0,0,0-.071-.049c-.007-.007-.02,0-.038.022s-.035.04-.049.055c.022.015.044.031.065.049a.741.741,0,0,0,.067.049c.007.007.02,0,.038-.017a.423.423,0,0,1,.06-.049m.066,3.176a.228.228,0,0,1-.055-.049c-.015-.019-.026-.027-.033-.027s-.04.027-.055.038a.528.528,0,0,0-.044.038c.03.051.051.073.066.066a.074.074,0,0,0,.055-.022.264.264,0,0,1,.066-.044m.241-.35.209-.076.175-.088-.175-.115a.128.128,0,0,0-.164.027.134.134,0,0,0-.033.1,1.238,1.238,0,0,1-.011.153M227.441,74l-.121-.022-.022.208a.543.543,0,0,1,.071.005c.026,0,.042,0,.049-.005Zm-.022.69a.392.392,0,0,1,.06-.082.151.151,0,0,0,.038-.071c0-.007-.013-.02-.038-.038a.145.145,0,0,0-.049-.028.3.3,0,0,0-.1.11c-.007.015,0,.029.022.044a.278.278,0,0,1,.066.066m.46.131c-.065-.065-.106-.1-.121-.1l-.055.027a.215.215,0,0,0-.055.039c.015.015.029.031.044.049a.124.124,0,0,0,.044.039.129.129,0,0,0,.054-.016l.088-.039M228,74.1l-.022.109h.208a.238.238,0,0,0,.011-.077Zm.3,4.008c-.08-.007-.134.007-.159.044a.163.163,0,0,0-.016.142.089.089,0,0,0,.032.055c.022.022.04.03.055.022.073-.014.113-.043.121-.087a.353.353,0,0,0-.033-.175m.5-3.834a.373.373,0,0,1,.022-.109c-.051-.022-.1-.046-.154-.071s-.124,0-.218.082Zm-.274,3.888.044.044.043.044.131-.164a.374.374,0,0,0-.044-.038.067.067,0,0,0-.033-.016Zm1.018-.263-.022-.121a.275.275,0,0,1-.18.006c-.062-.018-.126-.034-.192-.049a.486.486,0,0,0-.192-.006.338.338,0,0,0-.192.148,1.275,1.275,0,0,1,.1.088c.029.028.055.04.077.032.1-.014.2-.031.3-.049s.2-.034.3-.049m-.208-3.022c-.1.058-.16.109-.175.153s.006.095.065.154a.35.35,0,0,0,.131.011c0-.051,0-.1-.005-.142s-.01-.1-.017-.175m.164,1.413a.341.341,0,0,1,.044-.082.094.094,0,0,0,.022-.06c0-.007-.009-.018-.027-.032a.078.078,0,0,0-.039-.022l-.1.076Zm.329,1.271a.311.311,0,0,1-.082-.066c-.018-.022-.035-.029-.049-.022a.2.2,0,0,0-.065.039c-.022.018-.04.035-.055.049a.19.19,0,0,1,.038.055c.011.022.024.033.039.033a.244.244,0,0,0,.082-.038.409.409,0,0,1,.093-.049m.274-.975a.3.3,0,0,1,.1.049c.022.018.04.024.055.016a.376.376,0,0,0,.11-.109.508.508,0,0,0-.044-.039.041.041,0,0,0-.044-.006.141.141,0,0,0-.071.022c-.026.015-.06.036-.1.066m.022-1.1a.335.335,0,0,0,.071.164c.033.037.1.037.2,0Z" transform="translate(-96.874 -31.63)" fill="#fff"/>
    <path id="Path_87" data-name="Path 87" d="M240.087,77.4l.011-3.045a.989.989,0,0,1,.3-.745,1.009,1.009,0,0,1,.756-.274q.722,0,1.429.005t1.43.027a3.645,3.645,0,0,1,1.013.187,2.778,2.778,0,0,1,.9.515,5.076,5.076,0,0,1,.651.662,3.2,3.2,0,0,1,.477.8,2.606,2.606,0,0,1,.126.356,1.732,1.732,0,0,1,.06.356q.022.427.044.859a5.708,5.708,0,0,1-.022.86,3.2,3.2,0,0,1-.614,1.6,3.713,3.713,0,0,1-1.347,1.079,3.32,3.32,0,0,1-.837.284,3.81,3.81,0,0,1-.915.066q-.427-.021-.86-.016t-.86.006q-.2,0-.395.005c-.131,0-.263,0-.394-.005a.959.959,0,0,1-.684-.3,1,1,0,0,1-.258-.706q.01-.69.006-1.358t-.016-1.227m.6-1.719c-.022.022-.044.042-.065.06s-.03.031-.022.039l.043.066a.208.208,0,0,0,.055.055.174.174,0,0,0,.055-.027c.029-.019.04-.035.033-.049a.215.215,0,0,0-.033-.06l-.066-.082m.241,1.029-.066-.1c-.015-.007-.032-.019-.055-.033a.055.055,0,0,0-.055-.011.29.29,0,0,0-.06.055c-.019.022-.039.044-.06.065.022.015.044.031.065.049a.1.1,0,0,0,.066.027.219.219,0,0,0,.082-.016c.026-.011.053-.024.082-.039m.022,1.785a.575.575,0,0,0-.269-.055c-.026.015-.034.088-.027.219Zm.23,1.227c-.051-.036-.1-.071-.143-.1a.594.594,0,0,0-.153-.082.086.086,0,0,0-.088.006.832.832,0,0,1-.131.049c.08.08.151.149.213.208s.133.125.214.2l.076-.284.209.032.022-.088-.186-.088Zm-.2-2.694a1.225,1.225,0,0,1-.109-.061.323.323,0,0,0-.088-.038c-.015-.007-.031,0-.049.022s-.035.04-.049.055a.432.432,0,0,1,.072.065.207.207,0,0,0,.071.055c.014.007.034,0,.06-.022s.057-.048.093-.077m.515-2.18a.447.447,0,0,0-.378.011,2.177,2.177,0,0,0-.28.2.638.638,0,0,0,.34.016.659.659,0,0,0,.318-.224m-.329,4.3c.044-.2-.011-.3-.164-.307-.014-.007-.038.006-.071.039s-.049.056-.049.072q0,.229.284.2m-.274-3.56a.621.621,0,0,0,.372,0,.607.607,0,0,0,.241-.274.563.563,0,0,0-.378.022.4.4,0,0,0-.235.252m.263.68c-.043-.022-.075-.039-.093-.049a.282.282,0,0,0-.061-.027.1.1,0,0,0-.044.011l-.043.022c.029.058.055.091.077.1s.061-.018.164-.055m.077-1.73a.546.546,0,0,0-.142-.077.737.737,0,0,0-.049.055.271.271,0,0,1-.06.055.424.424,0,0,1,.06.049.073.073,0,0,0,.049.027.146.146,0,0,0,.06-.038.93.93,0,0,1,.082-.071m-.088,1.5.515-.067c-.117-.138-.212-.2-.285-.2s-.15.095-.23.263m.284,3.942a.481.481,0,0,0,.138.082.227.227,0,0,0,.18-.027l-.2-.208.384.131a.721.721,0,0,0,.411.186.416.416,0,0,0,.323-.219l-.744.044.241-.2c-.059-.059-.111-.115-.159-.17a.717.717,0,0,0-.159-.136,4.731,4.731,0,0,0-.493-.329c-.015-.007-.035,0-.06.022l-.06.055c.066.059.127.114.187.165s.117.1.175.142a.491.491,0,0,0-.082.181.209.209,0,0,0,.049.136l-.121.154-.23.121a.456.456,0,0,0,.192.005c.018-.011.027-.056.027-.136m.756-5.663-.362.055q-.154.021-.3.054a.124.124,0,0,0-.06.061c-.018.033-.035.06-.049.082a.59.59,0,0,1,.093.06.108.108,0,0,0,.093.028,2.128,2.128,0,0,0,.405-.121.2.2,0,0,0,.077-.077,1.689,1.689,0,0,1,.1-.143m-.493,4.425.033-.088a1.183,1.183,0,0,0-.115-.038.907.907,0,0,1-.115-.039l-.033.088a1.18,1.18,0,0,0,.115.038c.04.011.078.024.115.038m.055,1.556a.287.287,0,0,0-.136-.088c-.041-.007-.082.04-.126.142Zm.187-1.3c-.153-.059-.248-.077-.285-.055s-.055.1-.055.23Zm.022-3.571a1.134,1.134,0,0,1-.1-.065c-.029-.022-.051-.03-.066-.022a.142.142,0,0,0-.109.11.124.124,0,0,0,.038.066c.026.029.045.044.061.044a.18.18,0,0,0,.081-.049,1.232,1.232,0,0,1,.093-.082m.241,3.724a.487.487,0,0,1-.065-.077.2.2,0,0,0-.055-.055.06.06,0,0,0-.055.006l-.054.027c.014.03.027.057.038.082a.392.392,0,0,0,.049.082.14.14,0,0,0,.049-.022.768.768,0,0,1,.093-.044m-.022-2.081c-.008.088-.013.177-.016.269s-.006.18-.006.268c-.007.146-.014.288-.022.427a1.963,1.963,0,0,0,.022.416.571.571,0,0,0,.159.372.783.783,0,0,0,.4.11.7.7,0,0,1,.126.011.7.7,0,0,0,.126.011c.175.022.352.038.531.049a1.468,1.468,0,0,0,.542-.071q.264-.077.532-.169a.778.778,0,0,0,.421-.356,1.466,1.466,0,0,0,.126-.285q.049-.154.082-.307a3.365,3.365,0,0,0,.1-.964,1.621,1.621,0,0,0-.35-.909,1.387,1.387,0,0,0-.5-.433,1.186,1.186,0,0,0-.641-.1q-.219.011-.438.006c-.146,0-.292-.013-.438-.028a.784.784,0,0,0-.575.1.676.676,0,0,0-.214.52,2.989,2.989,0,0,0-.01.433c.007.113.01.262.01.444Zm.274-2.847a.249.249,0,0,1,.044-.066.141.141,0,0,0,.032-.055.089.089,0,0,1-.032-.022c-.008,0-.011,0-.011-.005s0-.005-.011-.005a.01.01,0,0,1-.011-.011.187.187,0,0,0-.077.077Zm.274,5.421a.444.444,0,0,1,.06-.082c.019-.018.024-.035.017-.049a.125.125,0,0,0-.044-.044.1.1,0,0,0-.055-.022.1.1,0,0,0-.077.1c0,.014.011.028.033.044a.425.425,0,0,1,.066.054m.23-5.224a.717.717,0,0,1-.06.087c-.019.022-.023.037-.016.044a.446.446,0,0,0,.121.088c.007,0,.018-.009.033-.027a.086.086,0,0,0,.022-.039Zm.624.318.088-.088a.28.28,0,0,1,.077-.055.364.364,0,0,1-.077-.077.089.089,0,0,0-.066-.044.09.09,0,0,0-.065.038.423.423,0,0,0-.055.082c-.008.015,0,.032.022.055a1.1,1.1,0,0,1,.077.088m.164,5.136a.445.445,0,0,1-.093-.049c-.026-.018-.042-.024-.049-.016a.229.229,0,0,0-.1.12c-.007.015,0,.031.022.049s.04.035.055.049Zm.471.033.033.12.088-.022a.433.433,0,0,0,.088-.032c.007,0,.009-.011.005-.033a.213.213,0,0,0-.016-.055c-.037.007-.069.013-.1.017s-.062.005-.1.005m.35-5.356a.321.321,0,0,1-.082-.065c-.019-.022-.035-.032-.049-.032a.7.7,0,0,0-.065.049.678.678,0,0,1-.066.049.425.425,0,0,1,.044.055c.015.022.029.03.044.022a.151.151,0,0,0,.072-.022c.026-.014.06-.033.1-.055m-.065.318a.456.456,0,0,1-.06.082.073.073,0,0,0-.027.049.094.094,0,0,0,.1.077.043.043,0,0,0,.049-.011c.019-.015.039-.029.061-.044Zm.065,4.622c.022.19.084.248.186.176a.034.034,0,0,0,.011-.023.083.083,0,0,1,.011-.032.044.044,0,0,1,.011-.033c-.08-.036-.154-.065-.219-.088m.482.536.044-.1a.267.267,0,0,0-.088-.115.134.134,0,0,0-.143.006.055.055,0,0,0-.027.044.179.179,0,0,1-.027.065Zm.121-5.158c-.037-.073-.079-.111-.126-.115a.264.264,0,0,0-.159.049c-.015.007-.027.03-.039.065s-.009.062.006.077a.135.135,0,0,0,.136.06.326.326,0,0,0,.138-.071c.014-.015.022-.026.022-.033s.007-.018.022-.033m.131,4.863a.378.378,0,0,1-.049.077.1.1,0,0,0-.028.055.129.129,0,0,0,.044.044.1.1,0,0,0,.055.022.131.131,0,0,0,.044-.038.636.636,0,0,1,.044-.049c-.015-.014-.031-.029-.049-.044a.331.331,0,0,1-.061-.065m.428-4.1a.4.4,0,0,0,.088-.11c0-.022-.019-.051-.055-.088-.015.014-.031.031-.049.049a.383.383,0,0,0-.049.06Zm.065,2.212.351-.044.361-.044c-.124-.146-.238-.214-.339-.2s-.226.107-.372.29m.1-1.008-.065.121a.3.3,0,0,0,.044.038.038.038,0,0,0,.044.006.2.2,0,0,0,.066-.1Zm.164,1.446-.076-.022c-.022.036-.044.069-.066.1a.235.235,0,0,0-.044.1.178.178,0,0,0,.039.1.155.155,0,0,0,.071.065c.058.015.095,0,.109-.032a.219.219,0,0,0,.011-.121Zm.482-2.256a.257.257,0,0,1,.049-.071c.018-.018.023-.035.016-.049s-.01-.029-.032-.044a.109.109,0,0,0-.055-.022.07.07,0,0,0-.049.032.1.1,0,0,0-.028.055c0,.015.034.048.1.1" transform="translate(-103.562 -31.634)" fill="#fff"/>
    <path id="Path_88" data-name="Path 88" d="M261.745,80.951a.542.542,0,0,1-.307-.049.794.794,0,0,1-.274-.214,1.847,1.847,0,0,1-.219-.263c-.065-.095-.131-.19-.2-.285l-.558-.788a.447.447,0,0,0-.328-.213.379.379,0,0,0-.362.169c-.117.154-.238.3-.362.438a1.762,1.762,0,0,0-.306.493,1.149,1.149,0,0,1-1.062.734.8.8,0,0,1-.378-.071.871.871,0,0,1-.3-.219.834.834,0,0,1-.176-.328.781.781,0,0,1-.01-.388.843.843,0,0,1,.088-.258c.043-.084.091-.166.142-.247q.252-.383.52-.761t.509-.761a1.625,1.625,0,0,0,.154-.378c.036-.135.073-.269.109-.4a.467.467,0,0,0,.006-.192.682.682,0,0,0-.06-.192q-.078-.164-.164-.317c-.059-.1-.121-.2-.187-.306q-.219-.318-.438-.619t-.438-.619a1.973,1.973,0,0,1-.23-.5.693.693,0,0,1,.077-.542,1.351,1.351,0,0,1,.268-.373.871.871,0,0,1,.909-.142.989.989,0,0,1,.367.339l.624.931.088.131a1.5,1.5,0,0,0,.1.131q.481.58.909-.033.219-.317.438-.629t.449-.63a1.271,1.271,0,0,1,.186-.17.447.447,0,0,1,.219-.093,1.329,1.329,0,0,1,.536.022.828.828,0,0,1,.449.3.785.785,0,0,1,.1.909,3.962,3.962,0,0,1-.241.416q-.131.2-.263.405a1.949,1.949,0,0,1-.142.224q-.077.1-.153.225c-.095.131-.188.263-.28.394s-.177.267-.258.405a.946.946,0,0,0-.136.57,1.169,1.169,0,0,0,.2.548l1.193,1.807a.9.9,0,0,1,.154.454,1.549,1.549,0,0,1-.055.477.536.536,0,0,1-.2.3.771.771,0,0,1-.329.136.706.706,0,0,1-.175.022ZM258.5,75.158l-.093-.055a.364.364,0,0,0-.082-.033c-.008,0-.021.015-.039.044s-.024.051-.016.066a.093.093,0,0,0,.1.065.077.077,0,0,0,.049-.027.424.424,0,0,1,.082-.06m.855,2.694v-.1l-.131-.077.241-.252-.2-.016-.093-.005-.35-.318a.331.331,0,0,0-.033.29.817.817,0,0,0,.142.192.845.845,0,0,0-.093.1.172.172,0,0,0-.033.082.23.23,0,0,0,.017.1c.014.04.036.1.065.169a2.488,2.488,0,0,1,.235-.093c.077-.025.155-.052.236-.082m-.57-1.293a1.164,1.164,0,0,1,.11-.049.128.128,0,0,0,.066-.055c.014-.026.03-.059.049-.1a1.305,1.305,0,0,0,.06-.18c-.088.065-.164.119-.23.159s-.085.115-.055.224m.154.011c.065.168.115.259.147.274s.1-.022.2-.109Zm.372-.712a.235.235,0,0,1-.077-.066c-.015-.022-.03-.033-.044-.033a.472.472,0,0,0-.072.044.556.556,0,0,1-.06.044.488.488,0,0,1,.044.055c.014.022.029.033.044.033a.13.13,0,0,0,.071-.027.42.42,0,0,1,.093-.049m1.106,1.665.175-.2-.044-.066-.219.022.022-.23a.076.076,0,0,1,.049-.005.053.053,0,0,0,.049-.016.147.147,0,0,0,.032-.049.36.36,0,0,1,.033-.06L260.5,76.9l-.022-.022-.065.022a.069.069,0,0,0-.044.034.055.055,0,0,0-.011.06.26.26,0,0,1,.011.071l-.126.044-.115.044a.811.811,0,0,0-.142.055,1.079,1.079,0,0,1-.132.055l-.032-.065a.253.253,0,0,0,.175-.088,1.6,1.6,0,0,0,.121-.159.975.975,0,0,1,.121-.148.268.268,0,0,1,.2-.065c-.022-.088-.055-.14-.1-.159a.313.313,0,0,0-.143-.022c-.051,0-.1.009-.154.016a.163.163,0,0,1-.131-.033l.219-.11a.429.429,0,0,1-.055-.154.288.288,0,0,1-.219.039.919.919,0,0,1-.192-.077c-.062-.033-.124-.061-.186-.088a.213.213,0,0,0-.192.016c-.014.081-.027.15-.038.208l-.038.208.208.115c.073.04.149.086.23.137l-.033.153a.457.457,0,0,0-.251-.054c-.036.014-.1.091-.176.23l.247.159a1.439,1.439,0,0,0,.268.137,1.639,1.639,0,0,1,.153.066.31.31,0,0,1,.121.12.17.17,0,0,0,.1.055q.077.023.1,0c.058-.051.071-.091.038-.121s-.068-.061-.1-.1a.024.024,0,0,1-.006-.028.181.181,0,0,0-.006-.071l.252-.11.088.252c.058.007.088.02.088.038s-.018.046-.055.082c-.072.066-.105.126-.1.181s.051.089.131.1a1.8,1.8,0,0,0,.279.022.4.4,0,0,0,.257-.1c-.058-.044-.113-.085-.164-.126a.649.649,0,0,1-.131-.136.249.249,0,0,0-.154-.082.509.509,0,0,0-.164.017m-.942,1.161-.087-.071a.206.206,0,0,0-.067-.039.073.073,0,0,0-.048.027l-.049.049a.33.33,0,0,0,.121.11c.014.007.031,0,.049-.022a.2.2,0,0,1,.082-.055m-.055-.657.033.121.186-.088c-.007,0-.01,0-.01-.011v-.022a.041.041,0,0,1-.011-.032Zm.569-2.277a.444.444,0,0,0-.022-.143c-.015-.044-.058-.069-.131-.077a.147.147,0,0,0-.065.016l-.077.039a.344.344,0,0,1,.038.082c.011.033.023.053.039.06a.245.245,0,0,0,.115.016c.04,0,.082-.006.126-.006a.262.262,0,0,1-.143.1.251.251,0,0,1-.136-.016.709.709,0,0,1-.142-.077.831.831,0,0,0-.148-.082,1.177,1.177,0,0,1,.022.208,1.683,1.683,0,0,0,.011.187l.2.038a.917.917,0,0,0,.175.016.688.688,0,0,0,.181,0,1.788,1.788,0,0,0,.192-.032q.087-.241.054-.285c-.022-.029-.117-.043-.285-.043m.219,2.529a.3.3,0,0,0-.055.148c0,.04.04.067.121.082a.111.111,0,0,0,.088-.022.139.139,0,0,0,.065-.065c.014-.081,0-.126-.044-.137a.41.41,0,0,0-.154-.006.021.021,0,0,0-.016.006.025.025,0,0,1-.016.005l.3-.3a.613.613,0,0,1-.378-.077.547.547,0,0,1-.192-.252.128.128,0,0,0-.077-.077h-.1a.158.158,0,0,0-.088.022.147.147,0,0,0-.032.077.083.083,0,0,0,.01.077,1.144,1.144,0,0,0,.093.121c.033.036.067.073.1.11l-.241.372a.238.238,0,0,0,.17.049.188.188,0,0,0,.1-.065.391.391,0,0,0,.06-.11.131.131,0,0,1,.077-.082Zm.077-2.1a1.946,1.946,0,0,1-.176.241l.066.077a.332.332,0,0,1,.126-.022.122.122,0,0,0,.1-.044.111.111,0,0,0,.027-.126.266.266,0,0,0-.148-.125m-.121-.624a.32.32,0,0,1,.016.038.111.111,0,0,0,.027.039l.328-.154a.663.663,0,0,0-.246-.1q-.049.005-.126.181m.526.4-.055-.077-.164.1.065.1a.619.619,0,0,1,.072-.06l.082-.06m.153.405-.121-.033a.29.29,0,0,0-.066-.011.114.114,0,0,0-.055.038.551.551,0,0,1-.044.049.427.427,0,0,1,.065.055.091.091,0,0,0,.055.033.089.089,0,0,0,.065-.038.87.87,0,0,1,.1-.093m.077,2.245-.1.121a.643.643,0,0,0,.049.044.192.192,0,0,0,.071.033c0,.007.01,0,.028-.027a.123.123,0,0,0,.027-.061.081.081,0,0,0-.027-.049.359.359,0,0,1-.049-.06" transform="translate(-110.808 -31.613)" fill="#fff"/>
    <path id="Path_89" data-name="Path 89" d="M63.83,268.052a.358.358,0,0,0-.1.342,3.346,3.346,0,0,0,.123.551c.063.211.131.438.2.681a3.467,3.467,0,0,1,.135.736,1.969,1.969,0,0,1-.077.716,1.275,1.275,0,0,1-.437.616,1.564,1.564,0,0,1-.663.34,1.347,1.347,0,0,1-.677-.028,2.113,2.113,0,0,1-.68-.359,4.03,4.03,0,0,1-.673-.664,2.845,2.845,0,0,1-.419-.687,2.077,2.077,0,0,1-.176-.747,1.743,1.743,0,0,1,.132-.736,1.658,1.658,0,0,1,.5-.648l1.061.993a.679.679,0,0,0-.266.492.959.959,0,0,0,.1.519.725.725,0,0,0,.333.33.378.378,0,0,0,.426-.076.358.358,0,0,0,.11-.349,3.546,3.546,0,0,0-.124-.541q-.092-.308-.2-.666a3.138,3.138,0,0,1-.131-.725,1.949,1.949,0,0,1,.092-.717,1.557,1.557,0,0,1,1.142-.962,1.53,1.53,0,0,1,.7.055,2.22,2.22,0,0,1,.672.356,3.511,3.511,0,0,1,.6.579,2.706,2.706,0,0,1,.415.682,2.147,2.147,0,0,1,.164.708,1.789,1.789,0,0,1-.467,1.308l-1.06-.954a.535.535,0,0,0,.118-.441,1.065,1.065,0,0,0-.176-.454.831.831,0,0,0-.337-.291.315.315,0,0,0-.358.04" transform="translate(-26.048 -114.931)" fill="#fff"/>
    <path id="Path_90" data-name="Path 90" d="M76.389,279.916l-4.061,3.8-.959-1.023,1.546-1.448-1.465-1.564-1.545,1.448-.959-1.024,4.061-3.8.958,1.024-1.551,1.453,1.464,1.564,1.551-1.453Z" transform="translate(-29.74 -119.184)" fill="#fff"/>
    <path id="Path_91" data-name="Path 91" d="M86.76,290.018a2.616,2.616,0,0,1,.645.9,2.871,2.871,0,0,1,.065,2.131,2.838,2.838,0,0,1-.593.974,2.853,2.853,0,0,1-3.043.8,2.706,2.706,0,0,1-1.6-1.464A2.845,2.845,0,0,1,82,292.31a2.941,2.941,0,0,1,.175-1.075,2.848,2.848,0,0,1,.593-.974,2.863,2.863,0,0,1,3.041-.806,2.609,2.609,0,0,1,.951.563m-1.885,3.51a1.363,1.363,0,0,0,.528-.143,1.534,1.534,0,0,0,.714-.793,1.447,1.447,0,0,0,.09-.521,1.391,1.391,0,0,0-.129-.549,1.3,1.3,0,0,0-.337-.448,1.29,1.29,0,0,0-.973-.318,1.357,1.357,0,0,0-.527.143,1.51,1.51,0,0,0-.44.332,1.422,1.422,0,0,0-.365,1,1.329,1.329,0,0,0,.442.954,1.281,1.281,0,0,0,.453.27,1.4,1.4,0,0,0,.542.07" transform="translate(-35.37 -124.793)" fill="#fff"/>
    <path id="Path_92" data-name="Path 92" d="M96.092,300.635l1.522,1.181-.757.975-1.522-1.181-.517.667,2.185,1.7-.81,1.044L92.9,302.46l3.412-4.4,3.293,2.557-.811,1.044-2.185-1.7Z" transform="translate(-40.072 -128.57)" fill="#fff"/>
    <path id="Path_93" data-name="Path 93" d="M119.641,318.5a2.98,2.98,0,0,1-.7.378,2.81,2.81,0,0,1-.766.172,2.737,2.737,0,0,1-1.545-.338,2.624,2.624,0,0,1-.836-.724,2.841,2.841,0,0,1-.471-.968,2.928,2.928,0,0,1,.277-2.179,2.862,2.862,0,0,1,.735-.871,2.942,2.942,0,0,1,.966-.506,2.839,2.839,0,0,1,1.071-.111,2.725,2.725,0,0,1,2.046,1.266,2.805,2.805,0,0,1,.409,1.27L119.4,316c-.005-.033-.01-.067-.015-.1s-.013-.067-.022-.1a1.462,1.462,0,0,0-.242-.484,1.307,1.307,0,0,0-.405-.349,1.263,1.263,0,0,0-.5-.156,1.459,1.459,0,0,0-.54.051,1.513,1.513,0,0,0-.485.26,1.418,1.418,0,0,0-.351.417,1.434,1.434,0,0,0-.172.525,1.522,1.522,0,0,0,.034.549,1.354,1.354,0,0,0,1.69.941c.073-.026.141-.053.2-.082a.973.973,0,0,0,.185-.111Z" transform="translate(-49.704 -135.161)" fill="#fff"/>
    <path id="Path_94" data-name="Path 94" d="M132.745,324.507l-.546,1.273-3.83-1.643,2.194-5.114,1.289.553-1.649,3.841Z" transform="translate(-55.372 -137.61)" fill="#fff"/>
    <path id="Path_95" data-name="Path 95" d="M144.825,326.767l1.84.571-.366,1.178-1.84-.57-.25.806,2.642.82-.392,1.262-3.981-1.235,1.649-5.315,3.982,1.235-.392,1.262-2.642-.819Z" transform="translate(-61.458 -139.88)" fill="#fff"/>
    <path id="Path_96" data-name="Path 96" d="M162.186,334.844l-1.522-.288-.127-.819-1.855-.351-.425.714-1.522-.288,3-5.088-.006-.009,1.529.289v.008Zm-1.873-2.494-.221-1.362-.7,1.187Z" transform="translate(-67.607 -141.792)" fill="#fff"/>
    <path id="Path_97" data-name="Path 97" d="M179.069,330.989l-.38,5.552-1.4-.1h-.007l-1.9-3.354-.22,3.209-1.4-.1.38-5.552,1.4.1v.008l1.909,3.354.221-3.217Z" transform="translate(-74.952 -142.626)" fill="#fff"/>
    <rect id="Rectangle_212" data-name="Rectangle 212" width="1.402" height="5.565" transform="translate(108.049 188.366) rotate(-1.376)" fill="#fff"/>
    <path id="Path_98" data-name="Path 98" d="M204.241,329.836l.652,5.526-1.392.164h-.007L201,332.583l.378,3.194-1.393.165-.653-5.526,1.393-.165v.008l2.5,2.944-.378-3.2Z" transform="translate(-85.984 -142.275)" fill="#fff"/>
    <path id="Path_99" data-name="Path 99" d="M220.922,331.522v.008a2.936,2.936,0,0,1-.756.842,2.947,2.947,0,0,1-2.226.547,2.977,2.977,0,0,1-1.043-.384,2.872,2.872,0,0,1-.822-.743,2.8,2.8,0,0,1-.483-1.039,2.764,2.764,0,0,1-.042-1.14,2.883,2.883,0,0,1,.394-1.033,2.99,2.99,0,0,1,.755-.816,2.946,2.946,0,0,1,2.322-.51,2.926,2.926,0,0,1,1.118.5l-.8,1.241a.847.847,0,0,1-.086-.061c-.026-.02-.055-.041-.086-.061a1.405,1.405,0,0,0-.521-.19,1.435,1.435,0,0,0-.557.024,1.386,1.386,0,0,0-.5.232,1.407,1.407,0,0,0-.374.406,1.534,1.534,0,0,0-.2.523,1.312,1.312,0,0,0,.016.546,1.349,1.349,0,0,0,.235.5,1.57,1.57,0,0,0,.413.377,1.351,1.351,0,0,0,.516.188,1.44,1.44,0,0,0,.553-.026,1.374,1.374,0,0,0,.633-.333l-.238-.991,1.364-.328Z" transform="translate(-92.961 -141.135)" fill="#fff"/>
    <path id="Path_100" data-name="Path 100" d="M241.207,321.174a.636.636,0,0,0,.4.372,1.391,1.391,0,0,0,.669.005,5.268,5.268,0,0,0,.952-.3q.548-.22,1.244-.532l.508,1.133-.351.158a1.712,1.712,0,0,1,.107.738,1.989,1.989,0,0,1-.2.726,2.294,2.294,0,0,1-.47.638,2.477,2.477,0,0,1-1.552.684,2.366,2.366,0,0,1-.811-.094,1.966,1.966,0,0,1-.685-.37,1.758,1.758,0,0,1-.622-1.274,1.932,1.932,0,0,1,.1-.659,2.187,2.187,0,0,1-.51-.74,1.5,1.5,0,0,1-.135-.659,1.71,1.71,0,0,1,.146-.654,2.03,2.03,0,0,1,1.755-1.18,1.839,1.839,0,0,1,.7.111,1.712,1.712,0,0,1,.579.359,1.787,1.787,0,0,1,.4.573l-1.2.539-.013-.029a.477.477,0,0,0-.295-.26.546.546,0,0,0-.413.019.558.558,0,0,0-.3.3.478.478,0,0,0,0,.393m1.642,2.265a.807.807,0,0,0,.4-.361.634.634,0,0,0,.063-.481,5.858,5.858,0,0,1-.694.214,3.173,3.173,0,0,1-.807.092.58.58,0,0,0,.049.222.616.616,0,0,0,.167.222.689.689,0,0,0,.241.131.8.8,0,0,0,.285.034.843.843,0,0,0,.3-.074" transform="translate(-103.458 -137.673)" fill="#fff"/>
    <path id="Path_101" data-name="Path 101" d="M262.671,307.213a1.86,1.86,0,0,1,.72-.287,1.96,1.96,0,0,1,.753.016,2.055,2.055,0,0,1,1.261.871l.136.205a1.984,1.984,0,0,1,.3.735,2.046,2.046,0,0,1,0,.76,1.967,1.967,0,0,1-.28.7,1.858,1.858,0,0,1-.545.552l-.938.62.716,1.082-1.169.774-3.067-4.633Zm1.544,1.384a.514.514,0,0,0-.181-.176.749.749,0,0,0-.152-.062.7.7,0,0,0-.173-.01.46.46,0,0,0-.23.085l-.925.612.734,1.109.925-.612a.429.429,0,0,0,.167-.181,1.491,1.491,0,0,0,.061-.16.8.8,0,0,0,0-.167.516.516,0,0,0-.09-.233Z" transform="translate(-112.394 -132.38)" fill="#fff"/>
    <path id="Path_102" data-name="Path 102" d="M275.252,298.279a2.612,2.612,0,0,1,.987-.5,2.865,2.865,0,0,1,1.078-.071,2.9,2.9,0,0,1,1.038.337,2.972,2.972,0,0,1,1.4,1.751,2.827,2.827,0,0,1-.208,2.117,2.647,2.647,0,0,1-.707.855,2.609,2.609,0,0,1-.988.5,2.837,2.837,0,0,1-1.074.068,2.939,2.939,0,0,1-1.036-.339,2.87,2.87,0,0,1-.869-.736,2.9,2.9,0,0,1-.529-1.015,2.837,2.837,0,0,1,.205-2.114,2.6,2.6,0,0,1,.7-.853m3.174,2.406a1.36,1.36,0,0,0-.059-.544,1.4,1.4,0,0,0-.266-.481,1.384,1.384,0,0,0-.407-.348,1.466,1.466,0,0,0-.5-.171,1.4,1.4,0,0,0-.563.042,1.311,1.311,0,0,0-.495.263,1.293,1.293,0,0,0-.466.912,1.337,1.337,0,0,0,.06.543,1.517,1.517,0,0,0,.259.486,1.425,1.425,0,0,0,.935.517,1.332,1.332,0,0,0,1.013-.289,1.284,1.284,0,0,0,.336-.406,1.387,1.387,0,0,0,.154-.525" transform="translate(-118.288 -128.408)" fill="#fff"/>
    <path id="Path_103" data-name="Path 103" d="M290.759,290.832l.949,1.009-3.038,2.855-3.81-4.056,1.022-.96,2.862,3.046Z" transform="translate(-122.874 -124.954)" fill="#fff"/>
    <rect id="Rectangle_213" data-name="Rectangle 213" width="1.403" height="5.565" transform="translate(167.817 159.993) rotate(-46.515)" fill="#fff"/>
    <path id="Path_104" data-name="Path 104" d="M304.317,272.184a.358.358,0,0,0,.354.038,3.379,3.379,0,0,0,.521-.219l.633-.321a3.485,3.485,0,0,1,.7-.264,1.973,1.973,0,0,1,.718-.052,1.278,1.278,0,0,1,.685.32,1.566,1.566,0,0,1,.452.592,1.351,1.351,0,0,1,.094.671,2.127,2.127,0,0,1-.233.734,4.074,4.074,0,0,1-.533.78,2.865,2.865,0,0,1-.6.535,2.052,2.052,0,0,1-.7.306,1.73,1.73,0,0,1-.748,0,1.641,1.641,0,0,1-.726-.375l.788-1.221a.678.678,0,0,0,.531.173.955.955,0,0,0,.494-.193.727.727,0,0,0,.265-.386.377.377,0,0,0-.15-.407.357.357,0,0,0-.363-.046,3.58,3.58,0,0,0-.51.219l-.62.317a3.116,3.116,0,0,1-.69.258,1.944,1.944,0,0,1-.723.038,1.559,1.559,0,0,1-1.149-.952,1.522,1.522,0,0,1-.071-.7,2.23,2.23,0,0,1,.23-.724,3.536,3.536,0,0,1,.465-.693,2.693,2.693,0,0,1,.6-.529,2.113,2.113,0,0,1,.668-.287,1.8,1.8,0,0,1,1.371.225l-.75,1.214a.535.535,0,0,0-.454-.038,1.061,1.061,0,0,0-.415.254.834.834,0,0,0-.227.384.315.315,0,0,0,.1.345" transform="translate(-130.578 -116.357)" fill="#fff"/>
    <path id="Path_105" data-name="Path 105" d="M313.5,256.584l4.451,3.339-.841,1.122-1.695-1.271-1.285,1.714,1.694,1.27-.842,1.122-4.451-3.339.842-1.122,1.7,1.276,1.286-1.713-1.7-1.275Z" transform="translate(-133.948 -110.678)" fill="#fff"/>
  </g>
</svg>